<?xml version="1.0" encoding="UTF-8"?>
<svg id="_Шар_1" data-name="Шар_1" xmlns="http://www.w3.org/2000/svg" version="1.1" viewBox="0 0 48 48">
  <!-- Generator: Adobe Illustrator 30.0.0, SVG Export Plug-In . SVG Version: 2.1.1 Build 123)  -->
  <defs>
    <style>
      .st0 {
        fill: #c1e8f2;
      }

      .st1 {
        fill: #575756;
      }

      .st2 {
        fill: #fff;
      }
    </style>
  </defs>
  <g>
    <circle class="st2" cx="24" cy="24" r="23.94"/>
    <path class="st1" d="M24,48C10.77,48,0,37.23,0,24S10.77,0,24,0s24,10.77,24,24-10.77,24-24,24ZM24,.12C10.83.12.12,10.83.12,24s10.71,23.88,23.88,23.88,23.88-10.71,23.88-23.88S37.17.12,24,.12Z"/>
  </g>
  <g>
    <circle class="st0" cx="24" cy="24" r="19.13"/>
    <g>
      <path class="st1" d="M18.2,22.79c-.37-.33-.57-.69-.63-1.18-1.35-.14-1.33-2.07.02-2.21,1.2-.12,2.27.19,3.17.99.18.16.61.55.75.72.11.14.15.3.02.44-.17.17-.69.03-.92.1-.04.03-.05.25-.07.32-.2.69-.87,1.18-1.59,1.08,0,.1.12.13.17.18.41.45.38.97.75,1.4.17.19.45.41.67.55.82.53,2.02.59,1.91,1.89l1,2.11c3.26-1.08,6.06,2.63,4.02,5.46-2.31,3.18-7.37.73-6.29-3.09.26-.92.91-1.64,1.7-2.15l-.49-1.03-2.41,3.78v.09c.46.14.77.67.7,1.15-.02.14-.14.2-.27.21-.37.04-1.41.04-1.78,0-.1-.01-.27-.11-.27-.21v-.62c-.13-.09-.35-.03-.51-.04-.1,1.53-1.17,2.87-2.65,3.25-3.55.92-6.01-3.53-3.32-6.04,1.02-.95,2.5-1.18,3.79-.69l-.61-.45c-.39-.34-.82-.88-.97-1.38-.46-1.56,1.26-3.11,2.39-3.93.17-.13.97-.68,1.13-.68h.61ZM20.58,21.03c-.55-.59-1.29-1-2.11-1.05-.22-.01-.85-.03-1.02.06-.28.14-.39.5-.2.77.04.06.25.23.31.23h3.01ZM18.64,21.63h-.44c0,.39.3.7.65.82.03-.04-.15-.8-.21-.82ZM19.99,21.63h-.68c0,.1.13.72.19.74.29-.11.49-.43.49-.74ZM19.49,25.1c-.1-.11-.22-.27-.3-.39-.26-.44-.24-1-.77-1.24-.63-.28-1.01.06-1.5.41-.89.63-1.85,1.49-2.25,2.53l2.22.63,1.28-2.2c.37-.38.61.22.83.46.68.74,1.76,1.15,2.74,1.26.01-.05-.02-.06-.04-.08-.17-.22-.88-.45-1.18-.61-.34-.18-.77-.48-1.04-.76ZM21.97,27.46l-.14-.3c-1.04-.11-2.13-.46-2.93-1.15-.08-.07-.42-.45-.48-.45l-.96,1.7c-.06.05.13.2.14.2h4.37ZM19.22,32.13v-2.53c0-.06-.13-.3-.18-.35l-2.13-1.57c-.72-.16-1.47-.48-2.18-.62-.05-.01-.12-.05-.12.03.01.24.24.61.38.8.59.79,1.65,1.27,2.59,1.49.49.11,1.08.03,1.16.68l.15,2.03c.03.09.26.03.34.05ZM21.83,28.05h-3.37c.45.45,1.18.69,1.32,1.38l.03.25v1.57l2.01-3.2ZM17.24,32.72h-2.04c-.11.62-.83.96-1.39.64-.85-.49-.48-1.77.49-1.77l1.15-1.73c.01-.06-.01-.04-.04-.05-.7-.36-1.78-.26-2.47.09-1.69.85-2.17,3.11-.93,4.56,1.74,2.05,5.05.91,5.22-1.73ZM18.32,32.13l-.18-2.07c-.6-.1-1.2-.22-1.76-.48-.03,0-.04.03-.01.07.05.07.25.2.33.27.61.58,1.04,1.36,1.12,2.21h.51ZM26.68,30.44c-.72-.71-1.77-1.03-2.76-.8-.09.02-.26.05-.21.16l.81,1.74c.05.05.29.06.39.1.7.23.85,1.17.27,1.63-.73.57-1.75-.14-1.49-1.01.05-.18.2-.33.3-.48l-.82-1.8c-.07-.06-.59.38-.66.45-1.79,1.76-.65,4.87,1.84,5.07,2.73.21,4.31-3.1,2.35-5.05ZM17.21,32.13c-.06-.5-.28-1.02-.58-1.41-.08-.11-.53-.59-.65-.57l-1.09,1.63.22.35h2.09ZM14.64,32.54c0-.2-.16-.35-.35-.35s-.35.16-.35.35.16.35.35.35.35-.16.35-.35ZM24.94,32.54c0-.2-.16-.35-.35-.35s-.35.16-.35.35.16.35.35.35.35-.16.35-.35ZM20.01,33c-.2-.38-.72-.28-1.08-.27l-.03.27h1.1Z"/>
      <g>
        <g>
          <path class="st1" d="M33.79,21.12c-.72-.77-1.44-1.55-2.16-2.33-.37-.49-.17-.84.3-1.11.55-.32,1.2-.59,1.72-.92.12-.08.17-.16.11-.31-.04-.11-.35-.59-.43-.69-.15-.18-.43-.07-.4.15.02.13.25.38.31.52,0,.02.02.04,0,.07-.51.29-1.05.54-1.56.83-.67.39-.9,1.04-.42,1.71l2.39,2.6-4.07,1.41c-.56.22-1.14.26-1.7,0-.18-.09-.45-.35-.62-.16-.2.22.14.39.3.49.54.3,1.17.37,1.77.21l10.69-3.7c.27-.13.11-.48-.17-.4-1.56.53-3.1,1.09-4.66,1.62-.12.04-.28.11-.39.13-.02,0-.02.02-.04,0,.09-.28.04-.58-.11-.83l-1.3-1.6,1.82-.85c.85-.54.94-1.49.62-2.38-.04-.12-.23-.55-.32-.61-.16-.11-.38.03-.34.22.45.8.69,1.9-.26,2.44-.59.34-1.35.55-1.95.89-.19.11-.18.23-.07.39.37.53.91,1.06,1.31,1.58.19.24.29.44.13.74-.03.06-.18.25-.26.21-.08-.1-.17-.19-.26-.29Z"/>
          <path class="st1" d="M28.71,23.7c-.41,0-.81-.1-1.17-.3h-.02c-.14-.08-.34-.19-.37-.35-.01-.07.01-.14.07-.21.16-.17.37-.04.53.07.05.03.1.06.14.08.51.24,1.07.23,1.66,0l4.01-1.39-2.34-2.54c-.23-.32-.31-.64-.25-.95.07-.33.3-.62.68-.83.26-.15.54-.3.81-.44.24-.13.49-.25.73-.39,0,0,0,0,0,0h0c-.02-.06-.08-.14-.13-.21-.09-.12-.17-.24-.18-.32-.01-.12.05-.23.16-.27.12-.05.24-.01.33.09.08.1.39.58.44.7.07.19,0,.28-.13.37-.3.19-.64.37-.98.53-.25.13-.51.25-.74.39-.28.16-.43.32-.46.51-.03.16.03.34.18.53.35.37.7.75,1.05,1.13.37.4.74.8,1.11,1.19l.04.04c.07.08.15.16.22.24h0s.15-.12.19-.19c.15-.29.04-.47-.13-.69-.17-.22-.38-.45-.57-.68-.26-.3-.53-.6-.74-.91-.08-.11-.1-.2-.09-.28.02-.07.07-.13.17-.19.29-.16.63-.3.95-.43.34-.14.69-.28,1-.45,1.1-.63.46-1.98.24-2.37h0c-.02-.12.03-.22.12-.28.09-.06.21-.06.3,0,.11.08.31.57.33.64.37,1.04.13,1.95-.64,2.43l-1.77.83,1.27,1.55c.16.26.2.55.14.81.07-.02.16-.05.24-.08.04-.01.08-.03.11-.04.81-.27,1.63-.56,2.42-.84.73-.26,1.49-.52,2.24-.78.19-.05.31.05.36.16.04.11,0,.25-.15.33l-10.7,3.7c-.21.06-.42.08-.64.08ZM27.41,22.86s-.08.02-.11.05c-.04.04-.06.09-.05.13.02.11.21.21.32.27h.02c.53.3,1.15.38,1.74.22l10.69-3.7c.11-.05.12-.15.1-.21-.03-.07-.11-.13-.24-.1-.74.25-1.5.52-2.24.78-.79.28-1.61.57-2.42.84-.03.01-.07.03-.11.04-.09.03-.2.07-.28.09-.01,0-.05.03-.09-.02v-.02s0-.02,0-.02c.08-.26.04-.54-.11-.79l-1.34-1.64,1.88-.88c1.05-.66.76-1.84.59-2.32-.05-.15-.23-.54-.3-.59-.07-.05-.15-.03-.19,0-.05.03-.09.09-.08.17.24.42.89,1.82-.28,2.5-.31.18-.66.32-1.01.46-.32.13-.65.27-.94.43-.07.04-.11.08-.12.12-.01.05.01.11.07.2.21.3.47.6.73.9.2.22.4.45.57.68.18.24.32.46.14.79-.02.04-.14.21-.24.23-.04.01-.07,0-.08-.01h-.01c-.07-.1-.14-.18-.22-.26l-.04-.04c-.37-.39-.74-.79-1.11-1.19-.35-.38-.7-.76-1.05-1.13-.17-.22-.23-.42-.2-.61.04-.21.21-.4.51-.57.24-.14.5-.27.75-.39.33-.17.67-.34.97-.53.12-.08.14-.13.09-.25-.04-.1-.35-.58-.43-.68-.07-.08-.16-.08-.22-.06-.06.02-.11.08-.1.17,0,.06.09.18.16.28.06.08.11.16.14.22.01.03.03.07,0,.11h-.02c-.25.15-.5.29-.75.42-.27.14-.54.28-.8.43-.35.2-.57.47-.63.77-.06.28.02.58.23.87l2.43,2.64-.07.02-4.07,1.41c-.61.24-1.21.25-1.73,0-.05-.02-.1-.06-.15-.09-.12-.08-.22-.14-.3-.14Z"/>
        </g>
        <g>
          <g>
            <path class="st1" d="M37.68,12.7c.26-.06.28.18.36.35.19,0,.5-.26.67-.1.06.06.07.17.04.25-.05.13-.42.21-.56.25-.03.03.08.23.08.28.05.28-.26.4-.4.17-.03-.05-.08-.29-.13-.29l-4.83,1.7-.09.06c-.29.49-.48,1.01-1.02,1.28-.7.34-1.52,0-2.25-.05-.75-.21-.6-1.3.19-1.28.41,0,.89.15,1.3.18.1,0,.17-.06.21-.14.42-.75.41-1.53,1.37-1.84.78-.25,1.41-.05,2.03.43.06.04.19.2.25.2l2.7-.95c-.04-.15-.16-.46.07-.51ZM34.34,14.26c-.5-.45-1.39-.56-1.94-.14-.35.27-.54,1.11-.79,1.51-.12.2-.37.32-.6.31-.42-.02-.88-.16-1.31-.17-.27.02-.28.37.01.43.35.07.82.12,1.18.16.23.02.4.03.62-.05.57-.21.71-.86,1.04-1.31l1.85-.65s-.05-.08-.06-.09Z"/>
            <path class="st1" d="M31.09,16.85c-.29,0-.58-.05-.87-.1-.24-.04-.46-.08-.68-.09-.43-.12-.57-.49-.53-.78.04-.3.28-.6.7-.6,0,0,.01,0,.02,0,.23,0,.48.05.73.09.19.03.4.07.58.08.07,0,.13-.04.17-.12.12-.2.2-.41.28-.61.21-.52.41-1.02,1.12-1.25.73-.23,1.39-.09,2.08.44.02.01.04.04.07.06.04.04.11.11.15.12l2.65-.93h0c-.04-.13-.09-.31-.02-.43.03-.05.08-.08.14-.1h0c.25-.06.32.13.37.29,0,.02.01.04.02.06.05-.01.12-.04.19-.06.17-.07.35-.14.48-.01.07.08.08.21.05.3-.05.12-.24.18-.47.25-.03,0-.06.02-.08.02,0,.04.04.1.05.14.02.05.03.08.04.1.03.17-.06.29-.16.33-.1.04-.24.01-.32-.13-.01-.02-.03-.06-.04-.11-.01-.04-.04-.12-.06-.15l-4.81,1.7-.07.04c-.05.09-.1.18-.15.27-.22.41-.43.8-.89,1.02-.23.11-.48.15-.73.15ZM29.72,15.38c-.37,0-.57.26-.61.51-.04.26.09.57.45.67.22.01.45.05.68.09.52.09,1.07.19,1.53-.04.43-.21.63-.58.85-.98.05-.09.1-.19.16-.28v-.02s.1-.06.1-.06l4.84-1.71c.09,0,.12.1.16.22.01.04.02.08.03.09.06.1.15.11.21.09.06-.02.13-.1.1-.23,0-.01-.02-.05-.03-.08-.06-.14-.08-.2-.04-.24h0s.01-.01.01-.01c.03-.01.07-.02.12-.04.13-.04.38-.11.41-.19.02-.06.02-.15-.03-.2-.09-.09-.24-.02-.38.03-.09.04-.18.07-.25.08h-.03s-.01-.03-.01-.03c-.01-.03-.03-.07-.04-.1-.06-.17-.1-.26-.26-.23h0s-.06.03-.08.05c-.05.08,0,.24.03.35l.03.09-2.75.97h0c-.06,0-.13-.06-.21-.15-.02-.02-.05-.05-.06-.06-.67-.52-1.28-.65-1.99-.42-.67.22-.85.67-1.06,1.19-.08.2-.17.42-.28.63-.06.1-.14.16-.25.16-.2-.01-.4-.05-.59-.09-.24-.04-.49-.09-.71-.09,0,0-.01,0-.02,0ZM31.13,16.43c-.08,0-.16,0-.25-.02-.37-.04-.83-.09-1.18-.16-.18-.04-.26-.18-.25-.29,0-.11.09-.22.25-.23.23,0,.46.05.69.09.21.04.43.08.63.08.22,0,.45-.11.56-.29.09-.15.18-.36.27-.58.15-.38.31-.76.54-.94.54-.41,1.45-.35,2,.14l-.03.03.03-.03s.08.08.08.11v.02s-.03.03-.03.03l-1.84.65c-.1.13-.18.29-.26.44-.19.36-.39.73-.8.88-.14.05-.27.07-.39.07ZM29.69,15.82c-.11,0-.15.08-.15.15,0,.08.05.17.18.2.34.07.81.12,1.17.16.21.02.38.03.6-.05.38-.14.56-.48.75-.83.08-.16.17-.32.28-.46h0s.01-.02.01-.02l1.8-.63s-.01-.01-.02-.02h0c-.51-.47-1.37-.53-1.88-.14-.21.16-.36.54-.51.9-.09.23-.18.44-.27.59-.13.2-.37.33-.61.33,0,0-.02,0-.03,0-.21,0-.43-.05-.64-.08-.22-.04-.45-.08-.67-.09Z"/>
          </g>
          <g>
            <g>
              <path class="st1" d="M29.76,12.92c-.09.14-.05.38,0,.53.17.45.7.67,1.15.49.12-.05.23-.18.36-.17.16.01.25.21.16.34-.03.04-.22.16-.27.19-.6.29-1.35.09-1.69-.49-.17-.28-.19-.56-.18-.89-.34-.02-.22-.47-.13-.67.53-1.22,2.82-1.16,2.93.38.02.3,0,.75-.26.93-.41-.01-.81.1-1.15-.18-.16-.13-.23-.28-.31-.45h-.61ZM29.69,12.5c.27.02.7-.05.94,0,.19.04.14.26.21.4.14.3.5.24.77.23.19-.55-.09-1.18-.69-1.27-.51-.08-1.19.09-1.38.62.05,0,.1.02.15.02Z"/>
              <path class="st1" d="M30.58,14.48c-.46,0-.91-.23-1.15-.65-.18-.3-.2-.59-.18-.87-.08-.01-.14-.05-.17-.11-.12-.2.02-.55.05-.62.31-.71,1.15-.97,1.83-.85.54.09,1.14.47,1.19,1.25.02.28,0,.78-.28.97h-.01s-.02,0-.02,0c-.1,0-.2,0-.29,0-.3.01-.61.03-.88-.2-.16-.13-.23-.28-.31-.44h-.55c-.06.12-.03.32.03.46.08.2.23.36.44.45.21.09.44.09.65,0,.04-.02.08-.04.12-.07.08-.06.17-.11.26-.1.09,0,.17.07.21.16.04.09.03.19-.02.26-.04.06-.24.18-.29.2-.19.09-.4.14-.6.14ZM30.62,11.45c-.57,0-1.18.26-1.42.82-.06.14-.14.41-.06.53.03.05.08.07.15.07h.05s0,.05,0,.05c-.02.27,0,.56.17.86.33.55,1.04.76,1.63.47.06-.03.23-.14.26-.18.04-.05.04-.11.01-.17-.03-.06-.08-.1-.14-.1-.06,0-.13.04-.2.09-.04.03-.09.06-.13.08-.23.09-.49.09-.72,0-.23-.1-.4-.28-.49-.51-.05-.14-.11-.41,0-.57v-.02h.68l.02.04c.08.17.15.31.29.43.24.2.52.19.82.18.09,0,.19,0,.28,0,.24-.18.25-.63.23-.88-.04-.61-.46-1.05-1.11-1.16-.1-.02-.2-.03-.3-.03ZM31.34,13.19c-.22,0-.44-.04-.55-.27-.02-.05-.03-.1-.04-.16-.02-.12-.04-.2-.13-.22-.14-.03-.34-.02-.54,0-.15,0-.28.01-.4,0h0s-.05,0-.07-.01c-.03,0-.05-.01-.08,0h-.07s.02-.06.02-.06c.19-.55.88-.74,1.43-.65.27.04.5.2.64.43.16.26.19.6.08.9v.03s-.11,0-.11,0c-.06,0-.13,0-.2,0ZM30.38,12.43c.1,0,.19,0,.26.02.16.03.18.18.21.29,0,.05.02.1.03.14.11.24.4.22.66.21h.03c.08-.27.05-.57-.09-.8-.13-.21-.33-.35-.58-.39-.5-.08-1.1.08-1.31.53.01,0,.02,0,.03,0,.02,0,.04,0,.05,0h0c.11,0,.25,0,.39,0,.1,0,.2,0,.3,0Z"/>
            </g>
            <g>
              <path class="st1" d="M38.65,10.75c-.09-.01-.35.11-.45.15-.81.32-1.6.68-2.41.99-.23.1-.17.41.08.42l2.83-1.15c.2-.09.17-.39-.05-.42Z"/>
              <path class="st1" d="M35.88,12.36h-.01c-.14,0-.24-.09-.26-.22-.02-.12.04-.24.16-.3.39-.16.78-.32,1.16-.48.41-.17.83-.35,1.25-.51.02,0,.05-.02.08-.03.17-.07.32-.13.4-.12h0c.12.02.2.1.22.22.02.12-.05.24-.16.29l-2.84,1.15ZM38.64,10.8c-.07,0-.24.07-.34.11-.03.01-.06.02-.08.03-.42.16-.84.34-1.25.51-.38.16-.77.33-1.16.48-.1.05-.12.13-.11.19.01.06.06.13.17.14l2.82-1.14c.09-.04.11-.13.1-.19,0-.06-.05-.13-.14-.14h0s0,0,0,0Z"/>
            </g>
            <g>
              <path class="st1" d="M34.53,10.75s-.1.01-.14.03l-1.92.84c-.23.15-.09.46.17.4l1.99-.88c.17-.11.1-.37-.1-.39Z"/>
              <path class="st1" d="M32.58,12.08c-.13,0-.21-.07-.25-.16-.04-.1-.02-.24.12-.33l1.95-.86s.09-.03.14-.02c.11.01.2.09.23.2.03.11-.02.22-.11.28l-2,.88s-.06,0-.08,0ZM34.52,10.8s-.06,0-.09.02h-.02s-1.92.85-1.92.85c-.09.06-.1.15-.07.21.03.07.1.12.21.1l1.98-.88c.06-.04.07-.12.06-.17-.01-.06-.06-.12-.14-.13h0s0,0-.01,0Z"/>
            </g>
            <g>
              <path class="st1" d="M34.94,12.27c-.06,0-.11.02-.16.04-.12.04-.53.2-.61.26-.18.13-.06.41.15.39.03,0,.08-.02.11-.03.1-.03.55-.21.61-.26.16-.12.09-.38-.1-.4Z"/>
              <path class="st1" d="M34.3,13c-.11,0-.2-.06-.25-.17-.04-.11-.01-.23.09-.3.09-.07.52-.23.63-.27.01,0,.02,0,.03-.01.05-.02.1-.04.15-.03h0c.11.01.19.09.22.19.03.11,0,.22-.1.29-.07.05-.53.24-.63.27h-.02s-.07.03-.1.03c0,0-.02,0-.03,0ZM34.93,12.31s-.06.01-.1.03c-.01,0-.02,0-.04.01-.15.05-.53.2-.6.25-.07.06-.08.14-.06.19.02.06.08.12.18.11.02,0,.06-.01.08-.02h.02c.11-.04.54-.22.6-.26.07-.05.08-.13.06-.19-.01-.05-.06-.11-.14-.12h0s0,0,0,0Z"/>
            </g>
          </g>
        </g>
      </g>
      <path class="st1" d="M33.73,36.56H9.78c-.18,0-.33-.15-.33-.33s.15-.33.33-.33h23.95c.18,0,.33.15.33.33s-.15.33-.33.33Z"/>
      <path class="st1" d="M17.53,37.9H6.54c-.18,0-.33-.15-.33-.33s.15-.33.33-.33h10.99c.18,0,.33.15.33.33s-.15.33-.33.33Z"/>
      <path class="st1" d="M30.04,25.81c-4.6,0-8.35-3.75-8.35-8.35s3.75-8.35,8.35-8.35c1.13,0,2.22.22,3.25.66.14.06.21.22.15.36-.06.14-.22.21-.36.15-.96-.41-1.98-.61-3.03-.61-4.3,0-7.79,3.5-7.79,7.79s3.5,7.79,7.79,7.79,7.79-3.5,7.79-7.79c0-.23,0-.46-.03-.69-.01-.15.1-.29.25-.3.15-.01.29.1.3.25.02.24.03.49.03.74,0,4.6-3.75,8.35-8.35,8.35Z"/>
    </g>
  </g>
</svg>