<?xml version="1.0" encoding="UTF-8"?>
<svg id="_Шар_1" data-name="Шар_1" xmlns="http://www.w3.org/2000/svg" version="1.1" viewBox="0 0 48 48">
  <!-- Generator: Adobe Illustrator 30.0.0, SVG Export Plug-In . SVG Version: 2.1.1 Build 123)  -->
  <defs>
    <style>
      .st0 {
        fill: #c1e8f2;
      }

      .st1 {
        fill: #575756;
      }

      .st2 {
        fill: #fff;
      }
    </style>
  </defs>
  <g>
    <circle class="st2" cx="24" cy="24" r="23.94"/>
    <path class="st1" d="M24,48C10.77,48,0,37.23,0,24S10.77,0,24,0s24,10.77,24,24-10.77,24-24,24ZM24,.12C10.83.12.12,10.83.12,24s10.71,23.88,23.88,23.88,23.88-10.71,23.88-23.88S37.17.12,24,.12Z"/>
  </g>
  <g>
    <circle class="st0" cx="24" cy="24" r="19.13"/>
    <g>
      <path class="st1" d="M32.9,21.96l3.05-.93h.02c.05.05.1.09.15.14.06.05.11.1.17.14.23.13.52.16.79.08.27-.08.5-.25.62-.48.03-.05.06-.15.08-.24.04-.12.05-.17.08-.19.03-.03.1-.05.39-.14.2-.06.46-.14.55-.19.54-.3.61-.85.51-1.24-.11-.39-.46-.84-1.11-.84-.01,0-.03,0-.04,0l-5.57.8-.08-.15.02-.03c.61-.73.82-1.74.6-2.85v-.06s1.79-.13,1.79-.13c.59-.11.81-.59.82-.97,0-.39-.21-.86-.71-.97-.33-.07-.74-.1-1.13-.12-.27-.02-.52-.03-.75-.06-.49-.06-.54-.09-.72-.26-.06-.05-.13-.12-.24-.21-1.21-.97-3.08-1.12-4.36-.35-.59.36-1.54,1.22-1.19,2.95.02.1.04.18.05.24.04.18.06.26.06.58,0,1.07.3,1.87.93,2.51.05.05.13.11.2.16.07.05.14.1.19.15,0,0,.01.01.02.02.03.03.06.06.04.14v.03s-.04,0-.04,0c-1.05.22-1.66.87-1.96,2.1-.19.8-.46,2.52-.23,3.09.42,1.03,1.74.61,2.13.46h.01s.01,0,.01,0c.09,0,.13.14.21.94,0,.1.02.17.02.2v.02s0,.02,0,.02l-1.4,2.31h-.04c-.27-.06-.56-.16-.85-.28-.63-.24-1.27-.49-1.83-.14-.36.23-.57.63-.56,1.07.02.44.25.81.62,1.01.43.23,2.42.91,2.92,1,.37.07.73.02,1.01-.13.39-.21,1.06-1,1.54-1.58.17-.21.32-.39.44-.52.2-.22.23-.2.26-.17h.01s0,.03,0,.03l1.23,4.09-.15.09h-.02c-2.87-.66-5.93-.84-9.09-.54h-.05s0-.05,0-.05l-.38-4.05c0-.1.05-.12.1-.15.11-.06.29-.08.48-.11.31-.04.65-.09.73-.27.05-.11.04-.31.04-.45v-.07c-.03-1.15-.26-2.69-.68-4.6v-.03c-.2-.89-.66-2.96-1.17-3.55-.19-.22-.35-.3-.55-.41-.06-.03-.13-.07-.2-.11-.01,0-.05,0-.15,0h-.17s.15-.1.15-.1c.49-.29.89-.71,1.17-1.22l.04-.08.92,1.38c.04.05.09.09.16.09.06,0,.13-.03.17-.08l1.09-1.38c.04-.05.05-.12.03-.19-.02-.06-.07-.11-.13-.13l-1.93-.62v-.05c.03-.17.05-.34.05-.51,0-1.78-1.45-3.23-3.23-3.23s-3.18,1.38-3.23,3.15v.06s-2.03-.2-2.03-.2c-.05,0-.09.01-.12.05-.03.03-.04.08-.03.13l.42,1.88s.04.08.09.1c.04.02.09.01.13-.01l1.66-1.08.02.07c.21.71.65,1.33,1.26,1.75l.14.1h-.18c-.07,0-.13,0-.15,0-.32.16-.42.1-.57-.03-.05-.04-.1-.08-.18-.13-.55-.33-1.38-.41-1.97-.19-.4.15-.68.43-.8.8-.12.67-.33,1.39-.53,2.09-.22.77-.46,1.57-.56,2.31-.07.5.02.91.27,1.22.3.37.82.58,1.49.62.12,0,.27,0,.42-.02.14-.01.28-.03.38-.02.07,0,.17.05.28.09.15.06.33.13.45.12h.08s-.02.06-.02.06l-.75,3.28c.07.32.29.33.64.31.14,0,.28-.01.42.02h.04s.02.61.02.61l-.02.02-2.14,1.97c-.44.59-.27,1.23.09,1.6.33.34.94.57,1.6.11l2.82-2.57c.04-.07.07-.13.08-.22.01-.11,0-.41,0-.73-.02-.65-.02-.94.03-1v-.02s1.06-.13,1.06-.13h.01s.07.03.14.62c.05.41.08.84.11,1.26.04.6.09,1.23.19,1.8,0,.06.03.12.06.18.03.09.07.17.07.28v.05s-.08,0-.08,0c-.02,0-.04,0-.05,0-.04,0-.09,0-.13.01-2.56.54-4.9,1.33-6.96,2.35l-.11.05c-.28.13-.93.45-1.01.59-.07.11-.08.23-.02.34.06.12.17.21.31.23.41-.18.82-.38,1.22-.57.64-.3,1.29-.61,1.96-.88,7.62-2.99,16.13-2.47,23.37,1.43.1.02.21-.02.3-.1.09-.09.14-.21.11-.33-.03-.17-.19-.26-.34-.35l-.06-.03c-.64-.38-1.52-.76-2.12-1.02-.83-.35-1.67-.66-2.51-.9h-.03s0-.05,0-.05c-.01-.12.04-.23.08-.32.03-.07.07-.14.08-.22.01-.09,0-.2,0-.3,0-.08,0-.16,0-.24l-1.26-10.54.03-.14h.03ZM16.43,15.84c0-.71.3-1.38.83-1.85l.09-.08v.54c0,.14.12.26.26.26h2.72c.14,0,.26-.12.26-.26v-.44l.09.09c.46.47.72,1.09.72,1.75,0,1.37-1.11,2.48-2.48,2.48s-2.48-1.11-2.48-2.48ZM14.66,21.94h0c-.2.83-.38,1.7-.32,2.48v.03s-.13.09-.13.09h-.07c-.4-.05-.78-.09-.98-.34-.12-.15-.16-.35-.13-.63l1.07-4.32c.29-.61,1.04-.4,1.55-.27l.11.03v.02c.05.06,0,.15-.22.47-.06.08-.11.16-.13.2-.32.64-.6,1.67-.74,2.23ZM17.7,30.46l-.02.02c-.25.22-.49.45-.73.68-.3.28-.6.56-.91.84-.05.04-.12.11-.21.19-.37.34-.7.65-.84.71-.07.03-.15.05-.22.05-.14,0-.27-.06-.35-.17-.13-.17-.13-.4,0-.58l2.26-2.08c.09-.14.08-.35.07-.56,0-.15-.01-.31.02-.44v-.04s.93-.09.93-.09v1.49ZM15.8,28.35h-.07s.02-.06.02-.06l.64-2.83h3.71c.77-.04,1.14-.65,1.23-1.16.09-.56-.12-1.24-.79-1.5-.06-.02-.27-.09-.31-.09h-2.63l-.08-.14.29-1.84c-.01-.2-.17-.32-.32-.35-.13-.02-.32.03-.39.23-.04.31-.1.64-.16.97-.08.4-.15.8-.19,1.19-.04.41-.04.63.35.67.47.05,1,.03,1.51,0,.53-.02,1.08-.05,1.58.01.32.08.46.4.44.67-.02.25-.2.56-.63.6-.74.07-1.55.04-2.33,0-.69-.03-1.41-.05-2.08-.01-.4-.07-.57-.31-.54-.74.05-.81.35-2,.62-2.84l.02-.05c.39-1.22.52-1.63,1.92-1.91.32-.06.71-.1,1.1-.1h.02c.07,0,.14,0,.21,0h.05c.66.03,1.81.2,2.17.98.35.77.67,2.27.86,3.16l.02.09c.33,1.58.52,2.93.56,4.13v.05s-.04,0-.04,0c-2.64.52-4.78.8-6.73.86ZM21.28,32.71s-.05,0-.08,0c-.18,0-.38-.11-.48-.38h0s-.39-3.59-.39-3.59l.1-.13.74-.13h0c.12.03.14.26.14.57,0,.05,0,.09,0,.12.03.28.08.59.12.89.1.69.2,1.41.22,2.05.01.38-.19.56-.38.6ZM27.39,15.52c-.23-.82,0-1.53.64-2.01.91-.68,2.42-.73,3.38-.12.19.12.34.28.48.42.13.14.26.27.42.38l2.61.3.08.15c.02.15-.06.26-.19.29l-7.41.63v-.04ZM27.66,17.58s-.33-1.13-.05-1.28h.02s4.71-.43,4.71-.43v.04c.31.88.12,1.8-.5,2.48-.48.53-1.15.82-1.85.82-.2,0-.39-.02-.59-.07-.76-.18-1.49-.83-1.74-1.56ZM32.09,22.28c0,.06.01.11.02.16.16,1.57.37,3.16.58,4.7.23,1.71.47,3.48.63,5.22,0,.04,0,.09.02.15.02.17.04.37.03.49-.02.22-.17.37-.37.41-.03,0-.05,0-.08,0-.18,0-.35-.11-.44-.28l-1.51-5.13s-.05-.14-.1-.18c-.16-.16-.43-.1-.59.05-.38.36-.75.81-1.11,1.24-.27.33-.55.67-.83.96-.04.04-.08.08-.11.12-.27.29-.45.49-.96.37-.43-.09-.88-.27-1.31-.44-.42-.16-.85-.33-1.26-.43-.23-.11-.34-.32-.3-.54.04-.21.22-.36.45-.38h.01s.01,0,.01,0l2.11.7c.15.04.26-.01.4-.12l1.69-2.87-.19-1.49h.04c.22-.09.46-.13.72-.18.55-.1,1.12-.21,1.44-.6.23-.28.33-.66.28-1.07-.05-.4-.24-.75-.53-.95-.55-.4-1.19-.23-1.82-.05-.2.05-.4.11-.6.15-.14.11-.21.25-.18.39.03.15.16.28.35.32l1.43-.33h0c.4.02.6.33.62.61.02.28-.14.6-.53.68-.46.06-.95.2-1.41.32-.49.13-.99.27-1.46.33-.22.03-.4.03-.52-.07-.08-.07-.13-.17-.14-.33-.06-.61.22-2.51.5-3.1.22-.48.69-.82,1.26-.91l9.99-1.39h.01c.16.07.26.2.27.35,0,.15-.08.28-.23.36-.11.06-.28.1-.46.14-.4.1-.85.21-.87.52,0,.03,0,.07.01.11.02.11.05.29-.17.36-.22.07-.31-.07-.4-.19-.09-.14-.18-.27-.43-.24l-3.9,1.2c-.18.15-.13.55-.09.85Z"/>
      <path class="st1" d="M39.94,39.08c-.07,0-.14-.02-.2-.07,0,0-.87-.63-2.23-1.32-1.07-.54-2.75-1.2-2.77-1.21-.18-.07-.27-.27-.2-.45.07-.18.27-.26.45-.2.07.03,1.73.68,2.83,1.23,1.42.71,2.29,1.35,2.33,1.37.15.11.19.33.08.48-.07.09-.17.14-.28.14Z"/>
    </g>
  </g>
</svg>