<?xml version="1.0" encoding="UTF-8"?>
<svg id="_Шар_1" data-name="Шар_1" xmlns="http://www.w3.org/2000/svg" version="1.1" viewBox="0 0 48 48">
  <!-- Generator: Adobe Illustrator 30.0.0, SVG Export Plug-In . SVG Version: 2.1.1 Build 123)  -->
  <defs>
    <style>
      .st0 {
        fill: #fad3bd;
      }

      .st1 {
        fill: #575756;
      }

      .st2 {
        fill: #fff;
      }
    </style>
  </defs>
  <g>
    <circle class="st2" cx="24" cy="24" r="23.94"/>
    <path class="st1" d="M24,48C10.77,48,0,37.23,0,24S10.77,0,24,0s24,10.77,24,24-10.77,24-24,24ZM24,.12C10.83.12.12,10.83.12,24s10.71,23.88,23.88,23.88,23.88-10.71,23.88-23.88S37.17.12,24,.12Z"/>
  </g>
  <g>
    <circle class="st0" cx="24" cy="24" r="19.13"/>
    <g>
      <path class="st1" d="M34.69,18.39c.27.38.52.74.4,1.25-.05.19-.15.36-.25.53-.16.26-.32.54-.27.87v.04s.04.03.04.03c.1.08.19.11.27.11.04,0,.07,0,.1-.01.38-.1.67-.76.77-1.04.38-1.02,0-1.59-.36-2.13-.29-.43-.56-.83-.48-1.45.05-.37.28-.65.53-.95.4-.48.86-1.03.46-2.02-.05-.13-.54-1.07-.95-1.08-.09,0-.21.03-.3.21-.11.23.08.51.29.8.14.2.29.41.32.57.07.45-.2.78-.49,1.14-.15.19-.31.38-.41.6-.28.58-.31,1.16-.07,1.82.1.27.26.5.42.72Z"/>
      <path class="st1" d="M17.21,18.21c-.13.3-.28.52-.43.74-.34.49-.64.92-.27,1.92.02.04.4,1.07.86,1.07,0,0,.01,0,.02,0,.17,0,.25-.09.29-.15.11-.21-.06-.54-.28-.92-.05-.08-.1-.16-.11-.21-.3-.72-.07-1.03.24-1.45.15-.21.33-.44.45-.75.26-.68.24-1.31-.09-1.93-.12-.23-.28-.42-.43-.6-.34-.42-.61-.75-.33-1.37.04-.09.16-.24.26-.38.16-.21.25-.33.27-.42.03-.15-.02-.3-.13-.4-.1-.09-.23-.11-.36-.08-.35.11-.88,1.17-.94,1.49-.11.67.24,1.12.58,1.56.4.52.77,1.01.41,1.86Z"/>
      <path class="st1" d="M13.95,18.58c.27.55.02.93-.25,1.33-.2.3-.4.61-.4,1,0,.24.32,1.29.74,1.47.04.02.09.03.13.03.09,0,.18-.04.25-.11.23-.23.04-.53-.1-.75-.04-.07-.08-.13-.1-.18-.22-.51-.12-.66.09-.95.08-.11.17-.23.25-.39.33-.63.36-1.27.07-1.8-.08-.15-.19-.29-.3-.41-.24-.29-.44-.53-.28-.92.03-.07.1-.16.17-.25.16-.21.37-.47.18-.73-.07-.1-.25-.17-.36-.15-.3.05-.76.85-.8,1.1-.11.67.12.95.36,1.25.11.14.23.28.33.48Z"/>
      <path class="st1" d="M37.83,19.52c.16.23.32.47.33.66,0,.14-.11.35-.21.56-.17.32-.34.65-.14.85.08.08.17.11.23.11.03,0,.05,0,.07,0,.39-.09.69-.88.69-.89.28-.8-.03-1.24-.3-1.64-.18-.27-.35-.52-.34-.86,0-.31.19-.54.38-.79.25-.33.54-.7.46-1.3-.04-.27-.48-1.15-.86-1.16h0c-.08,0-.27.05-.33.15-.15.25.03.49.2.7.08.11.17.22.19.31.1.38-.09.61-.31.88-.12.15-.24.3-.33.48-.17.37-.19.93-.05,1.36.06.19.2.39.33.58Z"/>
      <path class="st1" d="M23.11,19.23c.14.6.45,1.45,1.17,2.03.05.04.17.11.29.19.07.04.16.1.2.12,0,.13-.12.67-.44.93-.3.25-.78.29-1.24.34-.24.02-.48.05-.69.1-1.59.38-1.81,1.54-2.05,2.87l-.05.28-.02.02h0c-.72-.11-1.47-.21-2.19-.35-.06-.01-.16-.04-.26-.07-.51-.14-.95-.24-1.12-.04-.06.07-.08.17-.07.28.02.13.07.23.16.29.12.08.56.18,1.19.3l.12.02c2.58.52,5.38.78,8.1.78,2.74,0,5.39-.26,7.68-.79l.16-.04c.4-.09.77-.17.91-.25.15-.08.23-.26.18-.43-.05-.18-.21-.3-.43-.3h0l-2.74.57c-.03-.13-.05-.26-.08-.38-.25-1.24-.48-2.41-2-2.78-.2-.05-.44-.08-.7-.1-.48-.05-1.03-.11-1.31-.34-.3-.24-.39-.69-.41-.86.83-.48,1.44-1.25,1.66-2.12.04-.16.06-.31.08-.46.02-.15.03-.29.07-.42.07-.28.15-.51.22-.71.19-.57.33-.98.14-1.95v-.07c-.09-.37-.1-.41-.12-.83-.06-.97-1.07-1.98-1.94-2.25-.28-.03-.59-.09-.91-.15-1.47-.28-3.3-.63-3.87,1.14-.15.45-.15.91-.15,1.34,0,.28,0,.58-.04.86-.12.81-.14,1.22.17,2.04.19.51.22.65.34,1.18ZM27.3,16.03l1.48-.16c.09.15.19.8.19.98,0,.12-.05.5-.11.67-.22-.43-.58-.79-.84-1.01-.11-.09-.26-.19-.41-.28-.13-.08-.24-.15-.31-.21ZM27.39,20.75c-1.06.78-2.22.37-2.89-.38-.67-.74-.98-2-.08-3,.31-.34.86-.68,1.25-.84.28-.12.42-.18.56-.18.15,0,.28.08.57.25l.07.04c.56.34,1.27.99,1.52,1.6.33.82-.26,1.98-.98,2.51ZM28.96,23.6c.62.07,1.2.13,1.61.64.31.38.41.94.5,1.49.03.18.06.35.09.51-.17.02-.33.04-.5.07-.15.02-.3.05-.45.07-1.42.16-3.02.21-4.64.15-1.24.04-2.49-.09-3.7-.21-.27-.03-.53-.05-.8-.08.04-.18.07-.36.11-.54.14-.79.27-1.53,1.04-1.87.34-.15.7-.19,1.08-.23.42-.04.86-.09,1.27-.3.51-.27.86-.77.96-1.4.38.04.77.07,1.16,0,.09.49.34.93.71,1.22h0c.46.36,1.01.42,1.54.48ZM23.42,16.03c.39-1.33,2.3-2.69,3.58-2.55.82.09,1.62.86,1.71,1.63-1.15.04-3.72.3-5.01,1.89-.11.14-.23.29-.3.44-.18-.39-.12-.96.01-1.4ZM24.74,13.36c-.25.16-.52.33-.75.54-.12.11-.24.23-.34.34-.06.07-.12.13-.19.2.03-.34.21-.76.41-.93.1-.08.5-.27.58-.27h.49c-.07.04-.13.09-.2.13Z"/>
      <path class="st1" d="M40.1,26.72c.04.12.12.21.23.24.03,0,.07.01.1.01.12,0,.25-.05.34-.14.29-.26.43-.57.4-.9-.03-.36-.27-.72-.66-.98-.64-.43-2.73-1.07-3.53-1.14-.22-.02-.4.09-.46.28-.05.17.01.35.19.45.32.09.65.17.97.24.43.1.88.2,1.31.35.75.25,1.28.52,1.36.7.07.17,0,.26-.11.4-.1.12-.22.27-.16.49Z"/>
      <path class="st1" d="M13.8,24.99c.17-.05.37-.09.59-.13.34-.07.7-.13.94-.24.11-.05.19-.13.23-.23.04-.1.03-.21-.03-.33-.1-.21-.33-.18-.49-.17h-.04c-.42.05-1.18.27-1.8.45-.66.2-1.9.57-2.21,1.31-.12.28-.09.58.08.89.17.31.37.48.59.48.07,0,.13-.02.2-.05.09-.04.15-.11.17-.18.04-.14-.05-.28-.14-.42-.15-.24-.23-.4-.08-.56.33-.36,1.53-.7,1.99-.83Z"/>
      <path class="st1" d="M43.32,26.28h0c.04-.36.06-.64-.16-1.03-.7-1.23-3.33-2.01-5.42-2.45-2.69-.57-5.46-.81-7.3-.92-.3-.02-.76-.05-.77-.05h-.31c-.11-.02-.2.02-.26.09-.07.07-.1.17-.09.28.03.27.24.42.43.43l1.37.05c2.35.15,8.12.67,10.79,2.2.6.34.91.66.96.97.03.21-.06.41-.27.63-1.32,1.38-6.57,2.23-9.46,2.51-4.34.43-9.12.43-13.47,0-3.35-.33-7.79-1.15-9.26-2.38-.32-.27-.45-.53-.4-.79.06-.32.5-.97,2.75-1.69.88-.28,1.92-.53,3.18-.76,2.09-.38,4.41-.62,7.07-.74l.36-.02c.28-.01.47-.16.49-.39,0-.09-.02-.17-.09-.24-.07-.08-.19-.12-.31-.11h-.3c-3.27.18-6.98.36-10.48,1.45-1.1.34-3.69,1.15-3.46,2.92l-.06,7.14c0,.24.2.44.44.44s.44-.2.44-.44v-5.74c3.93,1.58,9.96,2.52,16.17,2.52s12.71-1.01,16.63-2.71v5.93c0,.24.2.44.44.44s.44-.2.44-.44c-.03-4.31-.07-6.87-.1-7.11Z"/>
    </g>
  </g>
</svg>