<?xml version="1.0" encoding="UTF-8"?>
<svg id="_Шар_1" data-name="Шар_1" xmlns="http://www.w3.org/2000/svg" version="1.1" viewBox="0 0 48 48">
  <!-- Generator: Adobe Illustrator 30.0.0, SVG Export Plug-In . SVG Version: 2.1.1 Build 123)  -->
  <defs>
    <style>
      .st0 {
        fill: #fad3bd;
      }

      .st1 {
        fill: #575756;
      }

      .st2 {
        fill: #fff;
      }
    </style>
  </defs>
  <g>
    <circle class="st2" cx="24" cy="24" r="23.94"/>
    <path class="st1" d="M24,48C10.77,48,0,37.23,0,24S10.77,0,24,0s24,10.77,24,24-10.77,24-24,24ZM24,.12C10.83.12.12,10.83.12,24s10.71,23.88,23.88,23.88,23.88-10.71,23.88-23.88S37.17.12,24,.12Z"/>
  </g>
  <g>
    <circle class="st0" cx="24" cy="24" r="19.13"/>
    <g>
      <path class="st1" d="M19.58,33l1.49-.37c.41-.17.28-.68-.1-.67-.45.01-1.21.36-1.7.42-.05,0-.09.02-.14-.01l-2.66-3.69v-.42s2.08-4.07,2.08-4.07c.05-.09-.01-.32-.08-.38-.07-.06-.3-.07-.39-.05-.08.02-.16.19-.21.26-.73,1.2-1.27,2.7-1.99,3.93-.17.39-.15.8.06,1.17.74,1.33,2.09,2.67,2.9,4,.96,1.58-.97,2.93-2.11,1.8l-4.07-6.07-.05-.59c.94-1.96,1.8-4.01,2.84-5.93.43-.8,1.07-1.43,1.99-1.63.22-.05.57-.02.8-.12.38.28.77.55,1.17.81.32.2.64.19,1,.27.84.2,1.84.3,2.68.02.3-.1,1.04-.4.7-.81-.24-.29-.67.1-.94.18-.87.28-1.74.07-2.6-.14-.2-.05-.4-.11-.6-.18-.19-.08-.38-.17-.54-.3-.11-.09-.21-.2-.33-.28-.16-.11-.36-.18-.55-.18-.01,0-.03,0-.04,0-.31-.06-.78.04-.96.09-1.09.27-1.87,1-2.39,1.97-.89,1.67-1.91,3.72-2.66,5.45-.32.74-.4,1.14,0,1.88,1.36,1.8,2.47,4.02,3.86,5.77.54.68,1.27.92,1.95.83-.02.53-.01,1.58.02,1.78.06.42.62.46.68,0,.03-.22.04-1.54.01-2,.68-.36,1.16-1.09,1.07-2.05-.03-.25-.15-.47-.19-.72Z"/>
      <path class="st1" d="M36.5,26.92c-.42-.76-1.09-1.5-1.55-2.25-.21-.18-.44-.29-.73-.25-.15.02-.46.22-.74.42-.18-.29-.42-.52-.7-.7.21-.09.38-.33.51-.51.57-.8.96-2,.58-2.97-.1-.25-.42-.68-.45-.89-.08-.5.03-1.23,0-1.77-.2-3.54-4.44-5.24-7.05-2.84-.84.77-1.29,1.75-1.36,2.89-.04.53.09,1.33-.01,1.8-.05.23-.48.77-.6,1.08-.2.51-.27,1.16,0,1.67.13.25.45.61.71.29.24-.29-.15-.55-.21-.83-.17-.91.75-1.5.81-2.32.1-1.3-.23-2.28.59-3.47,1.64-2.39,5.45-1.9,6.31.89.26.84.08,1.64.14,2.49.05.7.62,1.17.69,1.9.04.39-.2.75-.32,1.11-.13.38-.27.71-.59.99-.06.05-.12.09-.14.16-.01.03-.02.05-.02.08-1.26-.3-2.79-.56-4.08-.63-.16,0-.39-.02-.55,0-.65.11-1.44,1.37-1.33,2,.04.24.4.3.56.13.07-.08.16-.56.25-.74.14-.27.44-.72.77-.75,1.11.18,2.24.22,3.35.4.19.03.46.08.64.14.41.12.7.48.99.77.02.02.03.03.05.05-.01.01-.03.03-.04.04-.78.91-.35,1.93.33,2.74.51.61,1.14.81,1.83.63,0,.02,0,.05,0,.07.07.33.37.52.48.82.13.34.12.78.09,1.14-.07.64-.41,1.6-1.01,1.95-1.35.78-2.76,1.9-4.14,2.59-.98.49-2.03-.18-1.9-1.29.06-.53.47-.79.88-1.06.97-.65,2.01-1.2,2.98-1.86.28-.29.34-.62.18-.99-.43-.95-1.37-1.98-1.84-2.95-.21-.35-.75-.12-.62.27l1.86,2.98v.13s-3.29,2.11-3.29,2.11l-2.16-.59c-.4-.06-.56.46-.21.64l1.79.47c-.04.29-.21.55-.25.85-.1.78.3,1.45.89,1.82-.02.44-.02,1.93,0,2.09.06.29.56.33.64,0,.03-.13.04-1.24.02-1.81.41.08.85.04,1.27-.18,2.21-1.66,5.85-2.42,5.58-5.86-.04-.48-.32-.87-.59-1.26-.05-.08-.1-.18-.16-.26.66-.33,1.35-.74.89-1.56ZM35.92,27.5s-.65.4-.73.43c-.54.25-.96.16-1.36-.28-.46-.51-.9-1.28-.39-1.9.09-.11.8-.64.91-.64.05,0,.1.02.14.05l1.48,2.21c.01.06,0,.08-.04.13Z"/>
      <path class="st1" d="M20.89,35.64c-.13.04-.23.24-.24.36-.05.34-.05,1.38,0,1.72.06.48.63.49.69.04.05-.36.05-1.4,0-1.77-.03-.24-.17-.44-.44-.36Z"/>
      <path class="st1" d="M27.03,35.91c-.02-.19-.21-.31-.4-.27-.1.02-.23.13-.25.23.06.61-.08,1.36,0,1.94.04.35.54.37.65.04-.06-.6.08-1.36,0-1.94Z"/>
      <path class="st1" d="M26.38,19.3c-.07.45.07.77.41,1.05.07.05.21.09.23.12.05.08.08.38.13.51.77,2.15,3.18,2.36,4.05.2.07-.18.12-.56.19-.67.13-.23.55-.2.66-.8.09-.51-.39-1.29-.73-.73-.13.22.02.29.05.46.08.42-.37.36-.55.6-.18.56-.24,1.11-.67,1.55-.89.92-2.02.27-2.36-.78-.07-.22-.07-.57-.19-.76-.13-.19-.46-.2-.55-.4-.11-.24.08-.28.1-.49.04-.57-.68-.46-.78.13Z"/>
      <path class="st1" d="M27.25,18.23c.35-.05,1.08-.33,1.44-.46.37-.14.86-.44,1.19-.54.05-.02.12-.04.17-.01.02,0,.15.24.2.29.21.23.79.74,1.1.67.25-.05.34-.31.22-.53-.05-.08-.47-.27-.61-.39-.22-.19-.55-.77-.73-.82-.36-.11-.55.15-.84.29-.25.12-.54.26-.81.36-.48.19-1.14.3-1.57.5-.43.2-.27.71.24.63Z"/>
      <path class="st1" d="M18.35,14.21c.55-.06,1.76-.5,2.33-.7.49-.17,1.04-.38,1.51-.6.16-.08.59-.37.71-.37h.06c.26.46.7.91,1.12,1.2.23.16.81.52,1.07.31.23-.19.33-1.46.31-1.77-.11-1.32-.51-1.62-1.42-2.42-.33-.29-.45-.51-.89-.71-1.58-.7-2.98.36-4.34,1-1.14.54-1.11,2.43-.93,3.5.05.29.09.62.46.58ZM19.01,10.81c.17-.1.42-.16.61-.26.68-.36,1.3-.86,2.12-.94,1.01-.1,1.27.2,1.95.79.3.27.75.6.9.98.24.6.21,1.27.15,1.9-.1.1-.67-.4-.76-.49-.24-.24-.42-.64-.6-.8-.48-.45-1.13.16-1.6.38-.99.46-2.09.74-3.12,1.07l-.11-.02c-.08-.69-.23-2.18.47-2.6Z"/>
      <path class="st1" d="M18.01,14.69c-.22.49-.13,1.04.26,1.41.13.12.47.25.51.31.07.1.09.45.13.6.33,1.08,1.19,2.17,2.36,2.34,1.69.25,2.99-1.43,3.17-2.96.71-.21,1.1-1,.79-1.69-.11-.23-.31-.47-.58-.28-.32.23.1.6-.03,1-.14.42-.68.16-.85.87-.11.47-.12.73-.37,1.18-1.06,1.88-3.04,1.47-3.75-.42-.11-.3-.14-.82-.26-1.03-.21-.35-.85-.27-.81-.86.01-.16.15-.28.17-.4.09-.49-.46-.66-.73-.08Z"/>
      <path class="st1" d="M26.89,30.51c.27-.74.28-2.7.01-3.44-.91-2.51-4.88-2.64-5.96-.27-.57,1.25-.47,3.68.54,4.72,1.52,1.56,4.62,1.13,5.41-1.01ZM23.46,25.79c.7-.05,1.37.01,1.96.42.55.38.98,1.11.95,1.79-.29-.38-.59-.57-1.08-.41-.89.29-1.13.52-2.14.24-.51-.14-.97-.59-1.5-.22-.11.08-.21.2-.25.34l-.09-.02c.05-1.14,1.01-2.05,2.13-2.14ZM21.95,31.05c-.4-.41-.69-1.11-.62-1.69.02-.14.67-1.16.78-1.21.94.42,1.84.62,2.86.31.15-.05.59-.27.69-.24.05.01.06.05.09.08.06.06.6.89.63.97.13.33-.12,1.04-.3,1.35-.78,1.38-3.07,1.54-4.14.43Z"/>
    </g>
  </g>
</svg>