<?xml version="1.0" encoding="UTF-8"?>
<svg id="_Шар_1" data-name="Шар_1" xmlns="http://www.w3.org/2000/svg" version="1.1" viewBox="0 0 48 48">
  <!-- Generator: Adobe Illustrator 30.0.0, SVG Export Plug-In . SVG Version: 2.1.1 Build 123)  -->
  <defs>
    <style>
      .st0 {
        fill: #575756;
      }

      .st1 {
        fill: #fff;
      }

      .st2 {
        fill: #e1e1e1;
      }
    </style>
  </defs>
  <g>
    <circle class="st1" cx="24" cy="24" r="23.94"/>
    <path class="st0" d="M24,48C10.77,48,0,37.23,0,24S10.77,0,24,0s24,10.77,24,24-10.77,24-24,24ZM24,.12C10.83.12.12,10.83.12,24s10.71,23.88,23.88,23.88,23.88-10.71,23.88-23.88S37.17.12,24,.12Z"/>
  </g>
  <g>
    <circle class="st2" cx="24" cy="24" r="19.13"/>
    <g>
      <path class="st0" d="M26.52,25.44c.24-.36.61-.6,1.05-.63.69-.05,1.77-.04,2.38,0,.42.03.81.25,1.05.57.43.17.8.45,1.08.81-.07-1.19-.94-2.09-2.1-2.18-.68-.05-1.81-.05-2.45,0-1.07.09-1.97.96-2.05,1.99,0,.1,0,.2,0,.3.26-.37.62-.66,1.04-.86Z"/>
      <path class="st0" d="M27.1,21.77c0,.94.76,1.7,1.7,1.7s1.7-.76,1.7-1.7-.76-1.7-1.7-1.7-1.7.76-1.7,1.7ZM29.72,21.77c0,.51-.41.92-.92.92s-.92-.41-.92-.92.41-.92.92-.92.92.41.92.92Z"/>
      <path class="st0" d="M14.83,12.2c.89,0,1.62-.73,1.62-1.62s-.73-1.62-1.62-1.62-1.62.73-1.62,1.62.73,1.62,1.62,1.62ZM14.83,9.74c.46,0,.83.37.83.84s-.37.83-.83.83-.83-.37-.83-.83.37-.84.83-.84Z"/>
      <path class="st0" d="M19.33,12.2c.13.05.25.04.36-.02.11-.07.19-.2.21-.35v-1.66h11.42v8.5h-11.42v-2.77c0-.07-.08-.24-.14-.29-.11-.1-.25-.13-.38-.08-.15.06-.26.21-.28.39-.05.47-.03.99,0,1.49.02.43.04.88.01,1.29.06.34.33.63.69.74h11.55c.39-.04.7-.36.78-.78v-8.54c-.12-.43-.43-.69-.89-.73-1.44,0-2.92,0-4.34,0-2.34,0-4.76-.02-7.14.04-.37.13-.61.44-.65.82-.04.41-.04,1.18,0,1.6.01.15.1.32.23.37Z"/>
      <path class="st0" d="M25.67,11.76s-.02,0-.03,0c-1.47,0-2.84,1.21-3.05,2.7-.17,1.25.39,2.45,1.46,3.12,1.07.67,2.39.64,3.44-.07.75-.51,1.48-1.64,1.37-2.6-.02-.14-.14-.3-.29-.3h-2.56v-2.61c0-.1-.22-.24-.35-.24ZM28.21,15.22v.11c-.12.98-.92,1.84-1.94,2.06-.19.04-.38.06-.56.06-.69,0-1.36-.28-1.85-.8-.61-.64-.83-1.54-.59-2.41.26-.94,1.05-1.66,2.02-1.82l.11-.02v2.57c0,.06.14.22.19.24h2.61Z"/>
      <path class="st0" d="M26.43,13.85c.01.18.06.27.19.34h3.1c.19-.11.19-.31.17-.59-.09-1.1-.89-2.17-1.93-2.6-.3-.12-.92-.28-1.22-.24-.24.03-.3.2-.31.34.02.42,0,.88,0,1.32-.02.48-.03.98,0,1.44ZM27.04,11.39l.11.02c1.06.16,1.95,1.05,2.07,2.07v.11s-2.18,0-2.18,0v-2.2Z"/>
      <path class="st0" d="M20.54,14.95c.05,0,.25-.07.33-.12.4-.21.62-.63.57-1.08-.05-.46-.36-.82-.8-.94-2.44-.05-4.91-.05-7.34,0-.93.17-1.73,1.04-1.81,1.98-.05.66-.03,1.38,0,2.07.02.62.04,1.27,0,1.88.11.56.64.96,1.21.88h.05s.1.1.1.1v5.3c.03.37.23.7.54.91.32.21.71.27,1.08.15.07-.02.13-.06.2-.1.07-.04.13-.08.21-.1l.05-.02.04.03c.35.25.79.31,1.19.17.39-.14.66-.46.76-.86l.04-.25v-10.01s3.57,0,3.57,0ZM16.84,14.18c-.37.07-.63.36-.67.78v10.01c-.05.3-.28.4-.47.38-.2-.02-.4-.19-.4-.47v-5.93c-.03-.23-.22-.34-.39-.34h0c-.16,0-.35.09-.38.35v5.92c0,.27-.18.43-.36.46-.03,0-.05,0-.08,0-.16,0-.33-.09-.42-.3v-.04s0-9.94,0-9.94c0-.11-.06-.27-.12-.34-.11-.12-.24-.16-.38-.11-.17.06-.29.23-.3.43-.04.58-.02,1.21,0,1.81.02.56.04,1.13,0,1.68-.02.2-.16.29-.29.29h0c-.15,0-.26-.11-.28-.25v-3.72c.07-.64.54-1.16,1.17-1.29,1.41-.05,2.83-.04,4.21-.04.86,0,1.75,0,2.63,0,.23,0,.36.15.37.3,0,.14-.1.3-.33.32h-3.5Z"/>
      <path class="st0" d="M18.74,25.44c.26-.35.69-.6,1.07-.63.62-.05,1.73-.05,2.38,0,.43.03.8.25,1.04.58.43.17.79.45,1.07.8,0-.07,0-.14,0-.21-.08-1.03-1-1.89-2.1-1.97-.64-.04-1.76-.05-2.45,0-1.18.11-1.98,1-2.05,2.28.26-.37.62-.66,1.04-.86Z"/>
      <path class="st0" d="M19.33,21.77c0,.94.76,1.7,1.7,1.7s1.7-.76,1.7-1.7-.76-1.7-1.7-1.7-1.7.76-1.7,1.7ZM21.95,21.77c0,.51-.41.92-.92.92s-.92-.41-.92-.92.41-.92.92-.92.92.41.92.92Z"/>
      <path class="st0" d="M23.23,25.38c-.31-.13-.66-.2-1.02-.2h-2.33c-.41,0-.79.09-1.14.25-.42.19-.78.49-1.04.86-.3.42-.47.92-.47,1.47l.56,4.47h6.53l.55-4.42v-.05c0-.59-.21-1.14-.56-1.58-.28-.35-.65-.63-1.07-.8ZM18.43,31.49l-.47-3.76c.01-1,.87-1.82,1.92-1.82h2.33c1.05,0,1.91.81,1.92,1.82l-.47,3.76h-5.23Z"/>
      <path class="st0" d="M31.01,25.38c-.31-.13-.65-.2-1.01-.2h-2.33c-.41,0-.8.09-1.15.26-.42.2-.78.49-1.04.86-.3.42-.47.92-.47,1.46l.56,4.47h6.53l.55-4.42v-.05c0-.59-.21-1.14-.56-1.57-.28-.35-.65-.63-1.08-.81ZM26.22,31.49l-.47-3.76c.01-1,.87-1.82,1.92-1.82h2.33c1.05,0,1.91.81,1.92,1.82l-.47,3.76h-5.23Z"/>
      <path class="st0" d="M23.87,32.68h-5.71c-.2,0-.37.16-.37.37s.16.37.37.37h2.49v2.34h-.79c-.2,0-.37.16-.37.37v.88c0,.2.16.37.37.37s.37-.16.37-.37v-.51h1.52v.51c0,.2.16.37.37.37s.37-.16.37-.37v-.88c0-.2-.16-.37-.37-.37-.01,0-.02,0-.03,0-.01,0-.02,0-.03,0h-.67v-2.34h2.49c.2,0,.37-.16.37-.37s-.16-.37-.37-.37Z"/>
      <path class="st0" d="M31.72,32.68h-5.71c-.2,0-.37.16-.37.37s.16.37.37.37h2.49v2.34h-.79c-.2,0-.37.16-.37.37v.88c0,.2.16.37.37.37s.37-.16.37-.37v-.51h1.52v.51c0,.2.16.37.37.37s.37-.16.37-.37v-.88c0-.2-.16-.37-.37-.37-.01,0-.02,0-.03,0-.01,0-.02,0-.03,0h-.67v-2.34h2.49c.2,0,.37-.16.37-.37s-.16-.37-.37-.37Z"/>
      <path class="st0" d="M34.39,25.44c.24-.36.61-.6,1.05-.63.69-.05,1.77-.04,2.38,0,.42.03.81.25,1.05.57.43.17.8.45,1.08.81-.07-1.19-.94-2.09-2.1-2.18-.68-.05-1.81-.05-2.45,0-1.07.09-1.97.96-2.05,1.99,0,.1,0,.2,0,.3.26-.37.62-.66,1.04-.86Z"/>
      <path class="st0" d="M36.67,23.47c.94,0,1.7-.76,1.7-1.7s-.76-1.7-1.7-1.7-1.7.76-1.7,1.7.76,1.7,1.7,1.7ZM36.67,20.85c.51,0,.92.41.92.92s-.41.92-.92.92-.92-.41-.92-.92.41-.92.92-.92Z"/>
      <path class="st0" d="M39.96,26.18c-.28-.35-.65-.63-1.08-.81-.31-.13-.65-.2-1.01-.2h-2.33c-.41,0-.8.09-1.15.26-.42.2-.77.49-1.04.86-.3.42-.47.92-.47,1.46l.56,4.47h6.53l.55-4.42v-.05c0-.59-.21-1.14-.56-1.57ZM34.09,31.49l-.47-3.76c.01-1,.87-1.82,1.92-1.82h2.33c1.05,0,1.91.81,1.92,1.82l-.47,3.76h-5.23Z"/>
      <path class="st0" d="M39.59,32.68h-5.71c-.2,0-.37.16-.37.37s.16.37.37.37h2.49v2.34h-.79c-.2,0-.37.16-.37.37v.88c0,.2.16.37.37.37s.37-.16.37-.37v-.51h1.52v.51c0,.2.16.37.37.37s.37-.16.37-.37v-.88c0-.2-.16-.37-.37-.37-.01,0-.02,0-.03,0-.01,0-.02,0-.03,0h-.67v-2.34h2.49c.2,0,.37-.16.37-.37s-.16-.37-.37-.37Z"/>
    </g>
  </g>
</svg>