<?xml version="1.0" encoding="UTF-8"?>
<svg id="_Шар_1" data-name="Шар_1" xmlns="http://www.w3.org/2000/svg" version="1.1" viewBox="0 0 48 48">
  <!-- Generator: Adobe Illustrator 30.0.0, SVG Export Plug-In . SVG Version: 2.1.1 Build 123)  -->
  <defs>
    <style>
      .st0 {
        fill: #575756;
      }

      .st1 {
        fill: #fff;
      }

      .st2 {
        fill: #e1e1e1;
      }
    </style>
  </defs>
  <g>
    <circle class="st1" cx="24" cy="24" r="23.94"/>
    <path class="st0" d="M24,48C10.77,48,0,37.23,0,24S10.77,0,24,0s24,10.77,24,24-10.77,24-24,24ZM24,.12C10.83.12.12,10.83.12,24s10.71,23.88,23.88,23.88,23.88-10.71,23.88-23.88S37.17.12,24,.12Z"/>
  </g>
  <g>
    <circle class="st2" cx="24" cy="24" r="19.13"/>
    <g>
      <g>
        <path class="st0" d="M35.8,30.48h-2.83s0-.01,0-.01c-.06-.08-.1-.16-.14-.25-.03-.07-.06-.13-.1-.2-.27-.44-.69-.69-1.18-.69-.02,0-.04,0-.06,0-.55.02-1.06.37-1.32.9-.01.02-.02.05-.03.08-.02.07-.04.15-.12.17h0c-.37,0-.75,0-1.12.01-.45.01-.92.02-1.37,0-.59-.03-1.07-.23-1.4-.58-.29-.31-.45-.72-.45-1.16,0-.82.55-1.69,1.63-1.75h6.66s0,.03,0,.03c.14.54.57.95,1.12,1.07.55.12,1.08-.08,1.43-.52.28-.35.38-.84.25-1.29-.12-.45-.43-.79-.85-.95-.4-.15-.8-.14-1.16.03-.38.18-.67.53-.81.98v.02s-6.65,0-6.65,0c-1.53.1-2.22,1.25-2.22,2.35,0,1.07.67,2.26,2.16,2.37.45.03.94.02,1.4,0,.46-.01.93-.03,1.39,0,.09.03.12.13.14.21.01.04.02.07.04.1.27.52.76.83,1.3.83h0c.56,0,1.05-.33,1.33-.86.01-.02.02-.05.03-.09.02-.08.05-.17.12-.19h0s2.73,0,2.73,0c1.11.12,1.62.95,1.63,1.73.01.77-.47,1.62-1.56,1.77h-6.72s0-.02,0-.02c-.14-.5-.51-.9-1-1.05-.14-.05-.29-.07-.43-.07-.33,0-.65.12-.91.34-.4.33-.58.83-.5,1.35.08.51.41.92.88,1.1.39.15.81.14,1.17-.03.38-.18.67-.54.8-.97v-.02s6.55,0,6.55,0c1.57-.08,2.3-1.2,2.34-2.28.05-1.49-1.08-2.31-2.15-2.44ZM35.37,25.83c.46,0,.83.37.83.83s-.37.83-.83.83-.83-.37-.83-.83.37-.83.83-.83ZM31.5,31.61c-.46,0-.83-.37-.83-.83s.37-.83.83-.83.83.37.83.83-.37.83-.83.83ZM27.63,35.72c-.46,0-.84-.38-.84-.84s.37-.84.84-.84.84.38.84.84-.37.84-.84.84Z"/>
        <path class="st0" d="M24.82,24.24c.15-.11.3-.23.46-.34l.09-.06v1.4c0,.08.19.39.28.47.25.24.6.3.92.18.33-.12.56-.42.59-.77.03-.31,0-.7-.01-1.07-.02-.45-.05-.92.01-1.27.01-.08.07-.15.14-.24.04-.05.08-.1.1-.14.26-.52.26-1.86-.2-2.32l-.02-.02v-.02c-.05-1.11-.04-2.25-.03-3.35.01-1.29.02-2.62-.05-3.91-.15-.37-.47-.59-.85-.59h-.02c-.39.01-.72.26-.84.64v.02s-.02.01-.02.01c-.84.52-1.73,1-2.6,1.46-.67.35-1.36.72-2.02,1.11l-.09.05c-.2.11-.42.24-.44.4-.01.09.04.19.16.3l4.96,2.74v.95l-.02.02-1.77,1.33c-.17.06-.33-.14-.46-.29-.03-.04-.07-.08-.09-.11l-.07-.07c-.67-.68-1.36-1.39-2.3-1.61-.51-.12-1.05-.12-1.57-.12-.17,0-.34,0-.51,0h-.11s.07-.09.07-.09c.57-.75.59-1.58.56-2.59h0s0-.02,0-.02c.03-.09.15-.11.26-.13.04,0,.08-.02.1-.03.39-.17.63-.55.62-.99,0-.44-.26-.81-.65-.96-.02,0-.07-.02-.11-.03-.1-.02-.2-.04-.24-.09v-.02c-.12-.75-.54-1.43-1.17-1.87-.62-.44-1.37-.61-2.12-.47-1.15.22-2.08,1.2-2.23,2.34v.02s-.02.01-.02.01c-.07.05-.15.06-.22.08-.04,0-.08.01-.12.03-.56.22-.7.74-.65,1.11.05.37.31.84.91.91h.05s0,.06,0,.06c-.02.96,0,1.88.59,2.65l.07.09h-1.62c-.17,0-.56.12-.76.2-1.82.76-1.75,3.63-1.71,5.72.01.48.02.94,0,1.31,0,.09.08.2.15.3.05.08.1.14.12.2.03.13.02.29.01.45,0,.11-.01.23,0,.33.04.42.3.77.69.95.41.19.89.15,1.25-.1.02-.01.06-.05.1-.09.16-.16.24-.24.31-.18h.02s0,.03,0,.03c.21.8.96.77,1.69.74.26-.01.51-.02.73,0h.03s1.86,3.6,1.86,3.6c0,.03,0,.07-.02.09-.02.02-.05.02-.06.02-.12.05-.24.08-.35.12-.15.05-.31.1-.46.17-.63.31-1.07.78-1.17,1.27-.08.38.03.75.33,1.11.56.68,1.77,1.09,3.15,1.09.02,0,.04,0,.06,0,1.38-.01,2.58-.44,3.13-1.13.33-.41.41-.82.25-1.24-.28-.73-1.22-1.26-1.97-1.39h-.04s0-.05,0-.05c-.01-.07.01-.12.03-.16v-.02c.18-.41.45-.87.72-1.31.19-.32.38-.65.53-.95l.05-.11c.29-.57.61-1.22.77-1.84.36-1.4.19-3.26-1.38-4.28l-.03-.02v-.7l.13-.07.03.02c.15.12.29.26.42.39.08.08.16.17.25.25.07.06.14.13.22.21.33.32.79.76,1.13.88.87.33,1.42-.1,2.05-.59ZM26.53,25.09c0,.12-.11.2-.27.2s-.27-.08-.27-.2v-1.94l.1-.07s.06,0,.08,0c0,0,.02,0,.03,0,.1,0,.24-.02.32.08v.02s.01,1.93.01,1.93ZM25.99,13.02c.02-.12.14-.2.29-.19.15.01.25.11.25.23v6.61l-.45.03-.09-.08v-6.61ZM25.69,20.73c.08-.2.32-.39.52-.41.27-.03.53.14.64.39.11.27.1,1.11-.01,1.39-.09.21-.3.35-.55.35h0c-.26,0-.48-.15-.57-.37-.1-.23-.11-1.11-.02-1.35ZM21.23,15.88l4.13-2.22v4.5l-4.13-2.29ZM14.33,13.57c.16-.35.5-.75.83-.95.61-.37,1.33-.42,1.98-.14.65.28,1.12.85,1.27,1.55l.02.1-.09-.03s-.01.01-.02.02c-.02.01-.03.02-.05.02h-3.97s-.05-.03-.06-.06c-.05-.11.06-.39.11-.51ZM13.56,15.58c-.25,0-.38-.19-.4-.37-.02-.18.08-.4.32-.44h.01s5.54-.01,5.54-.01c.28.03.4.24.4.42,0,.18-.13.38-.4.4h-5.48ZM18.44,16.25v1.21c0,1-1.1,1.86-2.01,1.91-.03,0-.07,0-.1,0-.54,0-1.14-.25-1.58-.66-.38-.36-.6-.81-.6-1.26v-1.21h4.28ZM12.03,27.74c-.11.14-.28.22-.45.22-.05,0-.11,0-.17-.02-.23-.06-.4-.25-.43-.47,0,0-.06-.48.09-.53h.02s1.01,0,1.01,0v.04c.08.23.09.56-.07.76ZM20.68,33.54c.42.25.64.54.63.83,0,.31-.25.61-.72.87-.57.31-1.36.47-2.14.47-.88,0-1.76-.19-2.33-.57-.42-.28-.59-.58-.52-.89.13-.58,1.12-1.02,1.76-1.1h.04s.8,1.4.8,1.4c.05.07.13.12.21.13.09.01.18-.02.27-.08l.83-1.46h.04c.4.07.82.22,1.14.41ZM21.05,25.17c.6.95.6,2.34,0,3.72-.58,1.32-1.57,3.16-2.41,4.49-.13.2-.17.22-.2.23h-.02s-.04-.02-.04-.02h0c-.33-.69-.72-1.37-1.1-2.03-.49-.85-.99-1.73-1.38-2.63-.63-1.44-.63-2.86,0-3.81.51-.77,1.4-1.17,2.57-1.17.04,0,.08,0,.12,0,1.13.03,1.98.45,2.47,1.22ZM20.41,21.93c-.06-.04-.18-.04-.3.02-.09.05-.16.12-.16.17v1.44l-.07-.02c-1.61-.48-3.78-.2-4.71,1.54-.57,1.06-.46,2.22-.27,3.01,0,.05-.02.1-.04.12-.02.02-.04.03-.07.03h-1.17c-.19,0-.32-.2-.32-.39v-5.9c-.02-.09-.09-.18-.19-.23-.1-.04-.22-.03-.3.04-.03.02-.13.16-.14.2v4.34s-1.82,0-1.82,0c-.13-.04-.16-.27-.17-.31-.06-.64-.06-1.65,0-3.02.05-1.17.35-3.16,1.8-3.29.59-.05,1.85-.06,2.42,0,.12.01.24.07.35.12.07.03.14.06.2.09.51.16,1.15.16,1.65,0,.07-.02.15-.06.22-.09.11-.05.22-.11.32-.12.5-.06,2.29-.06,2.77.05.54.12,1.11.55,1.49.89.17.16.37.37.56.58.25.28.5.56.72.72.12.08.19.12.33.1.16-.03.52-.33.81-.58.21-.18.41-.35.53-.42l.03-.02.13.07v.95s.1.31.14.39c.03.05.06.1.09.14.09.12.18.25.1.46v.02s-.02,0-.02,0c-.2.14-.4.31-.6.48-.25.21-.51.43-.77.59-.46.3-.82.28-1.24-.05l-2.3-2.12Z"/>
        <path class="st0" d="M20.65,26.79c0-1.21-.98-2.19-2.19-2.19s-2.19.98-2.19,2.19.98,2.19,2.19,2.19,2.19-.98,2.19-2.19ZM18.45,28.34c-.86,0-1.56-.7-1.56-1.56s.7-1.56,1.56-1.56,1.56.7,1.56,1.56-.7,1.56-1.56,1.56Z"/>
        <path class="st0" d="M34.19,22.96c.32.54.62,1.06.83,1.51.11.12.21.18.29.17.13-.01.24-.18.35-.36.43-.7.91-1.58,1.48-2.69,1.35-2.64.72-3.71.03-4.34-.5-.46-1.28-.7-2.09-.64-.77.05-1.45.37-1.87.86-1.32,1.57-.04,3.74.98,5.49ZM33.7,17.82c.32-.36.79-.58,1.37-.61.86-.06,1.51.2,1.89.73.44.61.46,1.54.07,2.49-.25.59-.58,1.17-.9,1.73-.26.46-.53.93-.75,1.4v.03s-.04,0-.04,0c-.01,0-.03,0-.04,0-.04,0-.07-.02-.09-.05-.09-.1-.23-.36-.34-.57-.04-.08-.08-.15-.1-.2-.05-.09-.11-.2-.18-.31-.51-.89-1.28-2.23-1.34-3.05-.05-.67.1-1.22.44-1.62Z"/>
        <path class="st0" d="M35.28,20.69c.88,0,1.6-.72,1.6-1.6s-.72-1.6-1.6-1.6-1.6.72-1.6,1.6.72,1.6,1.6,1.6ZM35.28,18.09c.55,0,1,.45,1,1s-.45,1-1,1-1-.45-1-1,.45-1,1-1Z"/>
      </g>
      <rect class="st0" x="21.51" y="34.59" width="4.92" height=".57"/>
    </g>
  </g>
</svg>