<?xml version="1.0" encoding="UTF-8"?>
<svg id="_Шар_1" data-name="Шар_1" xmlns="http://www.w3.org/2000/svg" version="1.1" viewBox="0 0 48 48">
  <!-- Generator: Adobe Illustrator 30.0.0, SVG Export Plug-In . SVG Version: 2.1.1 Build 123)  -->
  <defs>
    <style>
      .st0 {
        fill: #fad3bd;
      }

      .st1 {
        fill: #575756;
      }

      .st2 {
        fill: #fff;
      }
    </style>
  </defs>
  <g>
    <circle class="st2" cx="24" cy="24" r="23.94"/>
    <path class="st1" d="M24,48C10.77,48,0,37.23,0,24S10.77,0,24,0s24,10.77,24,24-10.77,24-24,24ZM24,.12C10.83.12.12,10.83.12,24s10.71,23.88,23.88,23.88,23.88-10.71,23.88-23.88S37.17.12,24,.12Z"/>
  </g>
  <g>
    <circle class="st0" cx="24" cy="24" r="19.13"/>
    <g>
      <path class="st1" d="M20.89,22.76c-.44-.7-.13-1.53.61-1.85.07-.27.08-.55.13-.83.46-2.29,2.26-4.11,4.54-4.62-.41-1.29.9-2.45,2.11-1.76.62.35.85,1.09.66,1.76,2.53.59,4.49,2.83,4.62,5.44.78.25,1.09,1.17.65,1.87,0,.02.08.05.08.05h.92c.32,0,.84.61.83.95-.05.95.09,2.02,0,2.96-.04.46-.48,1.07-.97,1.07h-.97v8.38s-.08.21-.09.24c-.15.3-.47.42-.78.44-.43.03-1.87.05-2.22-.06-.18-.06-.38-.22-.46-.39-.02-.04-.1-.3-.1-.32v-8.28h-2.56l-2.51,2.44c-.64.52-1.4.53-2.04,0s-1.32-1.22-1.93-1.8c-.22-.21-.42-.43-.64-.64h-2.49v8.25s-.1.3-.12.34c-.14.28-.46.41-.75.43-.41.03-1.91.05-2.23-.04-.23-.07-.59-.38-.59-.63v-8.37l-.05-.05h-1.02c-.32,0-.86-.64-.84-.98.06-.95-.09-2,0-2.93.05-.53.43-.97.96-1.06.28-.04,1.77.03,1.85-.03.05-.12.05-.22.13-.33.24-.35.74-.76,1.04-1.1.06-.06.17-.09.18-.19v-.88c-1.18-.16-2.13-1.01-2.42-2.15-.15-.59-.14-2.15-.09-2.78.04-.51.4-.83.91-.87,1.28.09,2.73-.12,3.99,0,.51.05.84.4.88.91.05.6.04,1.54,0,2.14-.07,1.18-.81,2.23-1.94,2.61-.16.05-.38.07-.51.11-.05.02-.05.03-.06.08-.02.09-.01.81.02.87l1.16,1.14.22.44h1.9ZM26.82,14.7c-.02.14,0,.4,0,.56,0,.01.03.05.04.08.44-.04.88-.03,1.33,0,.07-.02.09-.36.09-.44-.03-.67-.92-.96-1.33-.41-.03.04-.11.16-.12.21ZM19.44,16.28v-.99s-.16-.18-.21-.15h-3.99c-.1.04-.17.11-.19.22-.03.2-.03.88,0,1.09.02.14.27.21.39.24.52.12,1.11,0,1.63-.1.76-.13,1.53-.38,2.32-.26l.05-.04ZM22.26,20.85h10.52c.09-.15,0-.48-.03-.66-.63-2.93-3.66-4.73-6.56-4.01-2.18.53-3.74,2.37-3.98,4.59l.05.08ZM19.4,17.6c.02-.18-.01-.38,0-.56,0-.04-.37-.08-.44-.08-1.14-.02-2.26.56-3.43.43-.16-.02-.31-.12-.48-.1-.07,1.72,1.81,2.92,3.32,1.98.56-.35.98-1,1.04-1.67ZM21.87,21.52c-.69.11-.71,1.01,0,1.11h11.35c.71-.14.67-1.04-.07-1.12h-11.27ZM18.18,22.76l-.97-.96-.97.96h1.95ZM13.61,27.05h6.37c.1,0-.06-.18-.08-.21-.42-.52-.94-1.01-1.37-1.53s-.88-1.14-1.04-1.83h-3.85c-.17.08-.25.22-.27.4-.09.88.07,1.91,0,2.8,0,.13.12.35.25.38ZM28.69,27.09h6.3c.18,0,.37-.2.38-.38-.06-.9.08-1.91,0-2.8-.02-.2-.08-.34-.27-.42h-3.85c-.09.47-.36.88-.63,1.27-.57.82-1.29,1.53-1.96,2.27l.03.07ZM30.45,23.52l-12.27.05c0,.32.7,1.18.93,1.45.86,1.05,1.93,2.08,2.92,3.02.54.52,1.22,1.21,1.8,1.67.36.28.72.29,1.09,0,.59-.46,1.34-1.26,1.9-1.81.98-.97,2.07-2.06,2.91-3.14.11-.14.85-1.11.73-1.24ZM17.52,27.81h-2.24v8.37h2.24v-8.37ZM33.42,27.81h-2.28v8.25c0,.07.18.11.25.12.44.04,1.42.05,1.85,0,.07,0,.18-.03.18-.12v-8.25Z"/>
      <path class="st1" d="M30.81,14.54c.14.06.3.04.42-.06.36-.31.48-1.09.36-1.59-.08-.32-.27-.57-.47-.82-.35-.45-.69-.88-.21-1.6.04-.07.1-.13.17-.21.2-.23.37-.44.17-.68-.07-.09-.19-.14-.3-.14,0,0-.01,0-.02,0-.21.01-.63.56-.78.85-.3.56-.3,1.19,0,1.73.09.16.2.3.31.42.25.3.49.59.42,1.08-.02.14-.1.27-.16.38-.07.11-.13.22-.13.33,0,.14.08.26.21.32Z"/>
      <path class="st1" d="M32.72,14.54c.14.06.3.04.42-.06.36-.31.48-1.09.36-1.59-.08-.32-.27-.57-.47-.82-.35-.45-.69-.88-.21-1.6.04-.07.1-.13.17-.21.2-.23.37-.44.17-.68-.07-.09-.19-.14-.3-.14,0,0-.01,0-.02,0-.21.01-.63.56-.78.85-.3.56-.3,1.19,0,1.73.09.16.2.3.31.42.25.3.49.59.42,1.08-.02.14-.1.27-.16.38-.07.11-.13.22-.13.33,0,.14.08.26.21.32Z"/>
    </g>
  </g>
</svg>