<?xml version="1.0" encoding="UTF-8"?>
<svg id="_Шар_1" data-name="Шар_1" xmlns="http://www.w3.org/2000/svg" version="1.1" viewBox="0 0 48 48">
  <!-- Generator: Adobe Illustrator 30.0.0, SVG Export Plug-In . SVG Version: 2.1.1 Build 123)  -->
  <defs>
    <style>
      .st0 {
        fill: #c1e8f2;
      }

      .st1 {
        fill: #575756;
      }

      .st2 {
        fill: #fff;
      }
    </style>
  </defs>
  <g>
    <circle class="st2" cx="24" cy="24" r="23.94"/>
    <path class="st1" d="M24,48C10.77,48,0,37.23,0,24S10.77,0,24,0s24,10.77,24,24-10.77,24-24,24ZM24,.12C10.83.12.12,10.83.12,24s10.71,23.88,23.88,23.88,23.88-10.71,23.88-23.88S37.17.12,24,.12Z"/>
  </g>
  <g>
    <circle class="st0" cx="24" cy="24" r="19.13"/>
    <g>
      <g>
        <path class="st1" d="M26.36,14.36v.38s.03.03.05.03c.11.04.28.06.42.1.65.21,1.22.71,1.53,1.31.25.5.32,1.03.29,1.59h.38c.21,0,.38.17.38.38h0c0,.21-.17.38-.38.38h-6.09c-.21,0-.38-.17-.38-.38h0c0-.21.17-.38.38-.38h.39c-.02-.45,0-.88.16-1.3.33-.9,1.16-1.57,2.11-1.71v-.41c0-.21.17-.38.38-.38h0c.21,0,.38.17.38.38ZM27.88,17.78c.04-.62-.06-1.17-.48-1.64-.78-.88-2.17-.84-2.9.08-.36.46-.45.99-.42,1.56h3.8Z"/>
        <path class="st1" d="M17.6,15.51c.21,0,.38.17.38.38v1.87l.03.03h2.02c.55,0,.99.45.99.99v.5l.03.03h8.16c.4.03.61.21.75.36.19.2.23.47.23.62v3.57h-.75v-.74l-.03-.03h-7.31c-.16,0-.29-.13-.29-.29v-1.21h-3.83v2.27h-.75v-7.97c0-.21.17-.38.38-.38h0ZM18.01,18.53l-.03.03v.72l.03.03h2.24l.03-.03v-.4s-.05-.14-.06-.15c-.04-.07-.2-.19-.28-.19h-1.92ZM21.81,20.06h-3.83v.75h3.83v-.75ZM22.59,20.06l-.03.03v2.22l.03.03h6.82l.03-.03v-1.89c0-.06-.02-.18-.08-.25-.05-.06-.14-.1-.23-.11h-6.54Z"/>
      </g>
      <path class="st1" d="M23.71,35.53c-.12,0-.23-.05-.31-.14-.39-.43-9.56-10.71-9.56-16.03s4.43-9.87,9.87-9.87,9.87,4.43,9.87,9.87-9.17,15.59-9.56,16.03c-.08.09-.19.14-.31.14ZM23.71,10.34c-4.98,0-9.03,4.05-9.03,9.03,0,4.47,7.4,13.24,9.03,15.11,1.63-1.87,9.03-10.64,9.03-15.11,0-4.98-4.05-9.03-9.03-9.03Z"/>
      <path class="st1" d="M23.71,26.71c-1.93,0-3.76-.74-5.15-2.08-.14-.14-.15-.37,0-.51.14-.14.37-.15.51,0,1.26,1.21,2.91,1.88,4.65,1.88,1.64,0,3.21-.6,4.44-1.68.15-.13.38-.12.51.03.13.15.12.38-.03.51-1.36,1.2-3.1,1.86-4.91,1.86Z"/>
      <path class="st1" d="M30.63,18.22c-.17,0-.32-.12-.35-.29-.63-3.1-3.4-5.36-6.57-5.36-1.79,0-3.48.7-4.74,1.96-.14.14-.37.14-.51,0-.14-.14-.14-.37,0-.51,1.4-1.4,3.27-2.18,5.25-2.18,3.51,0,6.57,2.49,7.28,5.93.04.19-.09.38-.28.42-.02,0-.05,0-.07,0Z"/>
      <path class="st1" d="M31.62,36.84h-15.82c-.23,0-.42-.19-.42-.42s.19-.42.42-.42h15.82c.23,0,.42.19.42.42s-.19.42-.42.42Z"/>
      <path class="st1" d="M34.58,35.3h-7.72c-.23,0-.42-.19-.42-.42s.19-.42.42-.42h7.72c.23,0,.42.19.42.42s-.19.42-.42.42Z"/>
    </g>
  </g>
</svg>