<?xml version="1.0" encoding="UTF-8"?>
<svg id="_Шар_1" data-name="Шар_1" xmlns="http://www.w3.org/2000/svg" version="1.1" viewBox="0 0 48 48">
  <!-- Generator: Adobe Illustrator 30.0.0, SVG Export Plug-In . SVG Version: 2.1.1 Build 123)  -->
  <defs>
    <style>
      .st0 {
        fill: #e0edcc;
      }

      .st1 {
        fill: #575756;
      }

      .st2 {
        fill: #fff;
      }
    </style>
  </defs>
  <g>
    <circle class="st2" cx="24" cy="24" r="23.94"/>
    <path class="st1" d="M24,48C10.77,48,0,37.23,0,24S10.77,0,24,0s24,10.77,24,24-10.77,24-24,24ZM24,.12C10.83.12.12,10.83.12,24s10.71,23.88,23.88,23.88,23.88-10.71,23.88-23.88S37.17.12,24,.12Z"/>
  </g>
  <g>
    <circle class="st0" cx="24" cy="24" r="19.13"/>
    <g>
      <path class="st1" d="M39.37,34.67h-3.04c-.1,0-.18-.08-.18-.18v-1.96c0-.08.05-.15.12-.17.14-.05.29-.09.44-.12.15-.04.3-.07.44-.13,1.27-.46,2.18-1.47,2.49-2.76.33-1.36-.05-2.8-1.01-3.86-.02-.02-.04-.03-.07-.05-.06-.04-.15-.09-.18-.19-.01-.04,0-.08.01-.12.63-1.39.34-2.87-.74-3.78-.77-.65-1.84-.85-2.85-.53-1.01.32-1.75,1.09-2,2.06-.03.12-.05.23-.07.35,0,.08.01.16.07.22.05.06.13.09.2.09h.18c.2,0,.38-.14.42-.34.03-.14.06-.27.11-.4.49-1.2,1.69-1.47,2.61-1.21.94.27,1.79,1.13,1.56,2.46-.06.33-.19.54-.31.73-.08.13-.16.24-.2.38-.1.29.14.48.42.7h0c.11.09.23.19.32.29.93,1.06,1.1,2.53.43,3.76-.43.79-1.27,1.39-2.18,1.58-.06.01-.11,0-.15-.04-.04-.04-.07-.09-.07-.14v-1.72s.02-.09.05-.13l1.36-1.39c.1-.1.22-.26.24-.46,0-.05,0-.12-.08-.21-.06-.07-.15-.12-.24-.13-.1-.01-.21.02-.29.09-.32.28-.74.65-.74.66-.05.05-.13.06-.2.03-.07-.03-.11-.09-.11-.17v-2.96s.02-.09.05-.13l.49-.51c.16-.17.16-.43,0-.59-.15-.15-.25-.2-.25-.2-.06-.03-.11-.04-.17-.03h-.12s0-.22,0-.22c0-.12-.06-.24-.16-.31-.15-.1-.35-.09-.48.03l-.08.08c-.08.07-.12.17-.12.28v11.17c0,.1-.08.18-.18.18h-1.38c-.1,0-.18-.08-.18-.18v-4.4l.58-.33c.13-.14.12-.36,0-.49l-.51-.52s-.05-.07-.05-.11c-.03-.37-.02-.77,0-1.14.01-.38.03-.77,0-1.13-.03-.3-.13-.46-.34-.49-.3-.05-.69-.03-1.06,0-.32.02-.63.03-.91,0-.09,0-.16-.03-.24-.05l-.08-.02v-.09s0-1.96,0-1.96c0-.09.06-.16.15-.18.1-.02.21-.02.31-.03.34-.02.54-.04.6-.33.07-.34.06-1.76.02-2.13-.02-.21-.15-.42-.36-.42h-6s-.06,0-.09-.02c-.16-.09-.33-.27-.51-.47-.25-.27-.54-.58-.74-.58s-.49.3-.74.57c-.18.2-.35.38-.51.47-.03.02-.06.02-.09.02h-6c-.21,0-.34.21-.36.42-.04.37-.06,1.79.02,2.13.06.29.26.31.6.33.1,0,.21,0,.31.03.09.02.15.09.15.18v2.05s-.08.02-.08.02c-.08.02-.16.04-.24.05-.28.02-.6,0-.91,0-.37-.02-.76-.04-1.06,0-.21.03-.32.19-.34.49-.03.36-.02.74,0,1.12h0c.01.37.03.78,0,1.16,0,.04-.02.08-.05.11l-.51.53c-.13.13-.13.35,0,.49l.58.34v4.4c0,.1-.08.18-.18.18h-1.38c-.1,0-.18-.08-.18-.18v-11.13c0-.1-.04-.19-.1-.27l-.05-.05c-.14-.15-.38-.18-.54-.05-.1.08-.16.19-.16.32v.17h-.12c-.08-.02-.12-.02-.21.04-.01,0-.08.06-.23.2-.15.15-.15.39,0,.54l.52.54s.05.08.05.13v2.96c0,.07-.04.14-.11.17-.07.03-.14.02-.2-.03l-.71-.67c-.15-.14-.39-.14-.54,0-.08.07-.12.17-.12.28,0,.11.04.2.11.28l1.52,1.55s.05.08.05.13v1.72c0,.06-.02.11-.07.14-.04.04-.1.05-.15.04-1.15-.23-2.05-1.04-2.42-2.16-.37-1.11-.12-2.29.66-3.16.09-.1.2-.19.32-.29.22-.18.46-.37.48-.55.01-.15-.09-.3-.19-.45-.06-.08-.11-.17-.15-.25-.45-.93-.22-2,.57-2.66.58-.49,1.36-.63,2.09-.39.73.25,1.26.82,1.42,1.54.02.11.09.2.19.27.14.1.37.07.5-.05.1-.1.15-.2.14-.3-.06-1.03-.99-1.85-1.83-2.18-1.08-.42-2.23-.23-3.09.51-.87.75-1.22,1.88-.95,3.02.03.12.08.24.13.37.05.12.1.23.13.35.01.06,0,.11-.03.16-.07.09-.15.17-.23.25-.08.08-.16.16-.23.24-.85,1.04-1.12,2.43-.72,3.72.4,1.3,1.4,2.31,2.69,2.7.09.03.18.04.26.06.13.03.27.05.4.11.07.03.11.09.11.17v1.96c0,.1-.08.18-.18.18h-3.04c-.22,0-.4.18-.4.4s.18.4.4.4h30.17c.22,0,.4-.18.4-.4s-.18-.4-.4-.4ZM26.55,21.55h0s.02-.08.02-.08h4.39c.1,0,.18.08.18.18v.89c0,.1-.08.18-.18.18h-3.3c-.05,0-.1-.02-.14-.06-.11-.13-.26-.26-.4-.39h0c-.17-.16-.35-.33-.48-.5,0,0,0,0-.01-.01-.03-.03-.1-.09-.07-.21ZM30.11,23.66v1.1c0,.07-.04.14-.11.17-.02,0-.05.01-.07.01-.04,0-.08-.01-.12-.04h-.01s-1.2-1.15-1.2-1.15l.11-.22h1.27l.13.13ZM17.62,22.72c-.1,0-.18-.08-.18-.18v-.89c0-.1.08-.18.18-.18h4.39l.02.08c.03.12-.04.18-.07.2,0,0-.01,0-.01.01-.13.17-.31.33-.48.49-.15.13-.29.26-.41.4-.03.04-.08.06-.14.06h-3.3ZM19.97,23.75l-1.2,1.14s-.08.05-.13.05c-.02,0-.05,0-.07-.01-.07-.03-.11-.09-.11-.17v-1.1l.13-.13h1.27l.11.22ZM15.87,26.84c0-.1.08-.18.18-.18h.56c.07,0,.14.04.17.11.03.07.02.14-.03.2-.14.18-.4.44-.58.58-.03.03-.08.05-.12.05-.03,0-.05,0-.08-.02-.07-.03-.11-.09-.11-.16v-.56ZM24.91,34.49c0,.1-.08.18-.18.18h-.89c-.1,0-.18-.08-.18-.18v-2.99c0-.1.08-.18.18-.18h.89c.1,0,.18.08.18.18v2.99ZM27.02,34.55l-.13.13h-1.04l-.13-.13v-3.63c0-.24-.14-.38-.41-.41-.45-.04-1.72-.06-2.11,0-.07.01-.24.09-.32.21-.03.05-.04.1-.03.15v.03s0,3.65,0,3.65l-.13.13h-1.04l-.13-.13v-5.16l.13-.13h5.2l.13.13v5.16ZM21.56,28.32v-1.53l.13-.13h1.04l.13.13v1.53l-.13.13h-1.04l-.13-.13ZM23.84,26.66h.89c.1,0,.18.08.18.18v1.48l-.13.13h-1l-.13-.13v-1.48c0-.1.08-.18.18-.18ZM23.66,25.73v-1.48c0-.1.08-.18.18-.18h.89c.1,0,.18.08.18.18v1.48l-.13.13h-1l-.13-.13ZM27.02,28.32l-.13.13h-1.04l-.13-.13v-1.53l.13-.13h1.04l.13.13v1.53ZM32.7,34.49c0,.1-.08.18-.18.18h-4.52c-.1,0-.18-.08-.18-.18v-8.28c0-.11-.2-.36-.28-.36h-1.69l-.13-.13v-2.22s-.14-.18-.17-.19c-.11-.07-.28-.09-.41-.1-.45-.03-1.39-.05-1.83,0-.1.01-.26.06-.32.1-.02.02-.11.14-.15.2v2.21l-.13.13h-1.69c-.08,0-.28.26-.28.36v8.28c0,.1-.08.18-.18.18h-4.52c-.1,0-.18-.08-.18-.18v-5.4s.02-.1.05-.13l8.23-8.2c.07-.07.19-.07.26,0l8.23,8.2s.05.08.05.13v5.4ZM32.7,27.41c0,.07-.04.14-.11.17-.02.01-.05.02-.08.02-.04,0-.09-.02-.12-.05-.18-.14-.44-.4-.58-.58-.05-.06-.06-.13-.03-.2.03-.07.09-.11.17-.11h.56c.1,0,.18.08.18.18v.56Z"/>
      <path class="st1" d="M31.45,33c.05-.47.05-1.55,0-2.04-.03-.3-.14-.42-.42-.45-.16-.02-.42-.03-.73-.03s-.6.01-.78.03c-.28.03-.43.16-.45.42-.04.33-.05,1.92.02,2.2,0,.04.06.13.08.15.06.06.25.13.35.15.3.03,1.42.03,1.66-.06.18-.07.24-.15.26-.36ZM30.64,32.22c0,.2-.16.36-.36.36s-.36-.16-.36-.36v-.55c0-.19.15-.35.34-.36h0c.1,0,.19.03.26.1.07.07.11.16.11.26v.55Z"/>
      <path class="st1" d="M19.47,33.13c.07-.28.06-1.87.02-2.2-.03-.26-.18-.39-.45-.42-.18-.02-.47-.03-.78-.03s-.57.01-.73.03c-.27.03-.39.16-.42.45-.04.49-.05,1.57,0,2.04.02.21.08.29.26.36.23.09,1.37.09,1.66.06.11-.01.29-.08.35-.15.02-.02.07-.11.08-.15ZM18.65,32.22c0,.2-.16.36-.36.36s-.36-.16-.36-.36v-.55c0-.1.04-.19.11-.26.07-.07.16-.1.26-.1.2.01.34.17.34.36v.55Z"/>
      <path class="st1" d="M14.38,12.03c-2.13,1.47-3.99,3.31-5.53,5.46-.06.08-.08.19-.07.29.02.1.07.19.16.25.08.06.19.08.29.06.1-.02.2-.07.25-.15,1.49-2.08,3.28-3.85,5.34-5.27.47-.32.87-.57,1.29-.7.72-.23,1.54-.16,2.59.21.6.21,1.23.46,2.05.82l.06.03-2.84,1.37c-.09.05-.16.12-.2.22-.03.1-.03.2.02.3.09.19.33.27.52.18l3.43-1.66h.01c.6.29,1.24.59,2.07.99.26.13.53.26.79.38.51.25,1.04.5,1.62.66,1.08.28,2.13.11,3.22-.54.45-.27.8-.63,1.13-.98.31-.33.61-.63.97-.85,1.64-1,3.39-.21,4.4,1.01l2.93,3.55c.07.08.16.13.26.14.11.01.21-.02.28-.09.17-.14.19-.38.05-.55l-2.93-3.55c-1.47-1.78-3.65-2.26-5.41-1.18-.23.14-.45.31-.71.56l-.02.02h-.02c-1.2-.72-2.45-1.35-3.71-1.9-.34-.15-.67-.28-1.05-.26-.37.02-.71.18-.97.31l-2.94,1.42h-.01c-1.05-.48-1.93-.84-2.76-1.14-.47-.17-1.19-.39-1.96-.39-.4,0-.78.06-1.13.17-.55.18-1.04.49-1.5.8ZM25.03,11.86c.22-.11.46-.22.67-.23,0,0,.02,0,.02,0,.21,0,.46.1.69.2,1.15.5,2.31,1.08,3.44,1.74l.04.02-.03.03c-.23.23-.48.47-.77.65-.63.38-1.23.56-1.83.56-.26,0-.53-.04-.79-.11-.5-.13-1-.37-1.48-.6-.27-.13-.53-.25-.79-.38-.54-.26-1.02-.49-1.46-.7l-.06-.03,2.36-1.14Z"/>
    </g>
  </g>
</svg>