<?xml version="1.0" encoding="UTF-8"?>
<svg id="_Шар_1" data-name="Шар_1" xmlns="http://www.w3.org/2000/svg" version="1.1" viewBox="0 0 48 48">
  <!-- Generator: Adobe Illustrator 30.0.0, SVG Export Plug-In . SVG Version: 2.1.1 Build 123)  -->
  <defs>
    <style>
      .st0 {
        fill: #fad3bd;
      }

      .st1 {
        fill: #575756;
      }

      .st2 {
        fill: #fff;
      }
    </style>
  </defs>
  <g>
    <circle class="st2" cx="24" cy="24" r="23.94"/>
    <path class="st1" d="M24,48C10.77,48,0,37.23,0,24S10.77,0,24,0s24,10.77,24,24-10.77,24-24,24ZM24,.12C10.83.12.12,10.83.12,24s10.71,23.88,23.88,23.88,23.88-10.71,23.88-23.88S37.17.12,24,.12Z"/>
  </g>
  <g>
    <circle class="st0" cx="24" cy="24" r="19.13"/>
    <g>
      <path class="st1" d="M17.09,18.84s.11.04.2.07c.42.15.48.18.51.22v.02c.04.28.03.57.02.86-.01.26-.02.53,0,.77.03.26.22.36.39.37,0,0,0,0,.01,0,.19,0,.4-.11.43-.34v-1.55s1.13.04,1.13.04v5.11s.06.12.07.14c.12.19.31.21.45.17.14-.04.31-.17.32-.41v-5.14s.06-.01.06-.01c.87-.22,1.61-.57,2.19-1.03.12-.1.24-.21.35-.32.13-.13.27-.26.41-.37.63-.47,1.31-.7,2.21-.75h9.94c.23-.01.38-.16.4-.4.04-.38.02-.8,0-1.21-.02-.38-.03-.76,0-1.13-.02-.16-.12-.29-.27-.35-1.66-.03-3.36-.03-4.99-.02-1.81,0-3.68.01-5.51-.03-1.06-.12-1.6-.59-2.17-1.09-.34-.29-.69-.59-1.16-.84-1.44-.75-3.29-.85-4.83-.25-1.75.68-2.85,2.1-2.88,3.7-.03,1.61.99,3.01,2.72,3.75ZM19.78,18.39l-.02.02c-.07.06-.17.07-.28.07-.04,0-.09,0-.13,0h-.06c-.11,0-.24-.02-.37-.04-.08-.01-.15-.02-.22-.03h-.05v-.78h.05c.1,0,.21.01.32.03.07.01.14.03.21.03.08,0,.15,0,.23-.01.07,0,.13-.02.19-.01.06,0,.09.03.12.06v.02s.01.65.01.65ZM20.46,15.19c-.15-.12-.39-.12-.54.02-.04.04-.14.18-.14.21v1.32l-.08.08h-.66c-.78,0-1.84-.72-1.91-1.52-.09-1.03.77-1.57,1.61-1.74,1.12-.23,2.48.15,2.81,1.17.23.7-.13,1.42-.86,1.77l-.08.04v-1.12s-.11-.19-.15-.23ZM15.51,13.89c.96-1.87,3.64-2.43,5.54-1.77.76.26,1.27.68,1.76,1.09.71.59,1.39,1.14,2.75,1.22h9.79s0,1.44,0,1.44h-9.79c-.91.07-1.72.37-2.41.89-.17.13-.33.27-.48.41-.23.21-.47.43-.76.6-.29.17-.73.4-1.22.5h-.07s0-.83,0-.83h.04c.83-.29,1.49-.93,1.73-1.7.21-.66.07-1.35-.37-1.94-.55-.72-1.51-1.17-2.57-1.18-.02,0-.05,0-.07,0-1.05,0-2.01.42-2.59,1.12-.45.55-.62,1.18-.48,1.82.16.73.71,1.39,1.47,1.76l.03.02v.76l-.12.07h-.03c-1.06-.38-1.91-1.14-2.28-2.06-.29-.73-.25-1.5.12-2.23Z"/>
      <path class="st1" d="M13.58,25.28c.26.32.51.61.44,1.12-.02.15-.1.27-.17.39-.07.13-.14.24-.14.36,0,.16.09.3.24.36.16.07.34.04.47-.07.39-.34.52-1.17.39-1.72-.08-.35-.29-.62-.5-.88-.37-.47-.72-.91-.22-1.66.05-.07.11-.14.17-.22.21-.25.41-.48.18-.76-.08-.1-.22-.16-.34-.16,0,0-.01,0-.02,0-.25.02-.71.65-.85.91-.32.6-.32,1.28.01,1.87.09.17.21.31.33.45Z"/>
      <path class="st1" d="M32.59,24.45c-.14.25-.26.46,0,.68.13.11.26.14.39.09.32-.13.58-.73.62-1.07.08-.78-.15-1.07-.46-1.48-.12-.16-.26-.33-.39-.56-.37-.63-.1-.98.19-1.35.1-.12.19-.25.27-.39.1-.17.09-.35,0-.48-.08-.11-.2-.16-.35-.16-.04,0-.08,0-.12.01h0c-.1.02-.31.23-.54.54-.53.72-.61,1.41-.26,2.13.09.18.22.35.35.51.26.32.54.66.46,1.14-.02.13-.09.26-.16.38Z"/>
      <path class="st1" d="M34.96,29.27h-1.37v-2.42c0-.07-.17-.26-.26-.28l-3.01-1.32c-.27-.03-.48.2-.68.42-.1.11-.2.22-.31.3h-.02s-.02.01-.02.01l-3.36-.32s-.06,0-.09,0c-.09,0-.17,0-.25.02-.19.06-.48.61-.67.97-.08.14-.14.27-.19.35v.02s-.03,0-.03,0c-.07.02-.1-.01-.12-.03-.12-.09-.23-.2-.35-.33-.11-.12-.23-.24-.35-.33-.66-.48-1.46-.45-2.09.08-.06.05-.25.25-.44.44-.46.48-.56.57-.61.58h-.02s-.02-.01-.02-.01c-.2-.15-.39-.35-.57-.54-.25-.26-.51-.53-.8-.69-.54-.29-1.21-.24-1.73.11l-2.99,2.95h-.02c-.16,0-.32,0-.48,0-.09,0-.18,0-.27,0-.97,0-1.9.09-2.08,1.28.05.8.02,1.66,0,2.49-.03.9-.06,1.82,0,2.69.05.66.55,1.19,1.23,1.29l22.07-.02c.58-.14,1-.58,1.1-1.17v-5.3c0-.57-.67-1.25-1.22-1.25ZM30.34,26.18l2.41,1.08v2.01h-5.51l3.1-3.09ZM25.98,26.52l2.51.24-2.04,2.09-1.13-1.14.66-1.19ZM21.4,27.98c.17-.11.33-.29.49-.47.43-.46.91-.98,1.57-.45h0s2.19,2.21,2.19,2.21h-3.12l-1.12-1.13-.05-.13.04-.02ZM16,29.07c.33-.28.64-.63.95-.96.34-.37.69-.75,1.06-1.05.37-.29.75-.29,1.12,0,.37.29.72.68,1.06,1.05.31.34.63.68.95.96v.02s.1.18.1.18h-5.34l.1-.2ZM35.35,31.51h-9.25c-.17,0-.35.24-.36.41,0,.09.06.25.16.35.03.03.08.07.14.07h9.23l.08.08v3.22s-.07.21-.08.24c-.12.22-.34.27-.55.28H13.22c-.2-.02-.41-.07-.53-.28-.01-.02-.08-.2-.08-.23v-1.16l.08-.08h19.02s.12-.07.13-.08c.09-.07.15-.18.16-.31,0-.12-.03-.24-.11-.32-.03-.03-.2-.12-.23-.13H12.61s0-2.95,0-2.95c0-.12.06-.24.18-.35.14-.12.32-.19.47-.17h21.48c.14-.01.31.06.44.18.11.1.17.22.17.34v.9Z"/>
      <path class="st1" d="M36.09,22.6c-.1-.23-.26-.41-.4-.59-.27-.33-.53-.64-.4-1.15.03-.13.14-.27.25-.41.2-.26.41-.53.24-.81-.06-.11-.27-.16-.37-.16-.44,0-.98,1.08-1.02,1.4-.1.73.25,1.19.56,1.58.24.31.48.61.49,1.02.01.45-.21.77-.44,1.11-.33.48-.7,1.02-.36,1.99.1.27.44.98.82,1.07.11.03.23,0,.33-.11.23-.23.02-.62-.18-1-.14-.26-.28-.53-.27-.72.01-.25.22-.56.42-.85h0c.16-.24.33-.48.4-.71.17-.53.15-1.21-.06-1.66Z"/>
    </g>
  </g>
</svg>