<?xml version="1.0" encoding="UTF-8"?>
<svg id="_Шар_1" data-name="Шар_1" xmlns="http://www.w3.org/2000/svg" version="1.1" viewBox="0 0 48 48">
  <!-- Generator: Adobe Illustrator 30.0.0, SVG Export Plug-In . SVG Version: 2.1.1 Build 123)  -->
  <defs>
    <style>
      .st0 {
        fill: #fad3bd;
      }

      .st1 {
        fill: #575756;
      }

      .st2 {
        fill: #fff;
      }
    </style>
  </defs>
  <g>
    <circle class="st2" cx="24" cy="24" r="23.94"/>
    <path class="st1" d="M24,48C10.77,48,0,37.23,0,24S10.77,0,24,0s24,10.77,24,24-10.77,24-24,24ZM24,.12C10.83.12.12,10.83.12,24s10.71,23.88,23.88,23.88,23.88-10.71,23.88-23.88S37.17.12,24,.12Z"/>
  </g>
  <g>
    <circle class="st0" cx="24" cy="24" r="19.13"/>
    <g>
      <g>
        <path class="st1" d="M22.96,34.65h6.52c.17,0,.31-.14.31-.32h0c0-.17-.14-.3-.31-.3h-2.53v-12.92h.79v.74c0,.17.13.31.3.31h0c.17,0,.31-.14.31-.31v-.66l.07-.07h5.75v.74c0,.17.14.31.31.31h0c.17,0,.31-.14.31-.31v-.74h.75l.07.07v2.83c0,.17.14.3.3.3h0c.17,0,.3-.14.3-.3v-3.25c.01-.06-.17-.27-.23-.27h-1.2v-.05c-.01-.29,0-.58,0-.86.02-.74.03-1.5-.27-2.2-.55-1.26-2.11-2.31-4.34-1.8-.05.01-.13.04-.21.07-.12.05-.24.09-.31.09s-.19-.04-.31-.09c-.08-.03-.15-.06-.21-.07-1.55-.35-3.47.03-4.28,1.67-.37.75-.35,1.53-.34,2.35,0,.27.01.56,0,.84v.05h-1.56s-.19.14-.2.18l-.02,13.74s.15.22.2.24ZM23.74,34.03l1.09-1.31,1.14,1.31h-2.24ZM30.46,16.2c.04-.06.08-.06.11-.06h.02c1.07-.15,2.06.07,2.71.6.53.43.82,1.03.87,1.78.03.48.05,1.39,0,1.83h0c0,.05,0,.1-.07.13h-.01s-2.51,0-2.51,0v-.05c-.01-.28,0-.57,0-.84.01-.72.03-1.46-.24-2.14-.18-.44-.48-.86-.87-1.2l-.03-.03.02-.04ZM29.64,16.48h.02s.02,0,.02,0c.72.37,1.23,1.19,1.29,2.1.03.47.05,1.35,0,1.78h0c0,.05,0,.1-.07.13h-.01s-2.46,0-2.46,0h-.01c-.06-.04-.06-.09-.07-.13-.06-.53-.04-1.86.11-2.39.17-.64.64-1.23,1.18-1.5ZM25.45,17.47c.54-1.02,1.54-1.46,3.06-1.36.37.02.37.09.36.12v.02s-.02.01-.02.01c-.36.33-.62.66-.79,1.01-.36.74-.34,1.56-.33,2.36,0,.26,0,.54,0,.81v.05h-2.59v-.05c.02-.28.01-.58,0-.88-.02-.71-.04-1.45.3-2.1ZM25.94,21.11l-1.05,1.3-.16-.09-.99-1.22h2.2ZM23.38,21.69l1.22,1.45c.19.17.33.15.54-.06.19-.2.38-.43.55-.66.15-.2.31-.4.47-.58,0,0,0,0,.01-.01.01-.02.04-.06.12-.05h.04v11.62l-.07-.02s-.07-.03-.09-.05c-.19-.17-.38-.43-.57-.67-.15-.21-.31-.42-.47-.58-.21-.21-.36-.22-.55-.04l-1.2,1.43v-11.77Z"/>
        <path class="st1" d="M33.41,24.77c-2.73,0-4.94,2.22-4.94,4.94s2.22,4.94,4.94,4.94,4.94-2.22,4.94-4.94-2.22-4.94-4.94-4.94ZM33.41,34.04c-2.39,0-4.33-1.94-4.33-4.33s1.94-4.33,4.33-4.33,4.33,1.94,4.33,4.33-1.94,4.33-4.33,4.33Z"/>
        <path class="st1" d="M36.07,29.89c.27-.45.31-.99.11-1.48-.2-.49-.61-.84-1.12-.97-.58-.15-1.1,0-1.63.45l-.04.04-.04-.04c-.35-.35-.84-.54-1.31-.5-.64.06-1.16.43-1.39.99-.24.6-.11,1.31.34,1.83.33.38.72.75,1.1,1.1.35.33.71.67,1.03,1.02.23.18.35.18.56.01.4-.32,2.15-2.06,2.39-2.45ZM34.17,30.92c-.23.23-.48.46-.74.68l-.04.04-2.02-2.02c-.38-.49-.24-1.02.06-1.31.31-.3.85-.42,1.36,0,.07.05.13.12.19.19.12.13.23.26.39.27.25.03.39-.13.55-.31.11-.12.22-.24.37-.31.39-.19.84-.11,1.14.2.3.3.36.73.16,1.1-.06.11-.15.2-.23.28-.03.03-.06.06-.09.1-.33.37-.73.75-1.08,1.09Z"/>
        <path class="st1" d="M16.19,33.59h5.44c.17,0,.31-.14.31-.31h0c0-.17-.14-.3-.31-.3h-1.47v-14.29l.07-.07h3.17c.17,0,.31-.14.31-.31h0c0-.17-.14-.31-.31-.31h-1.81v-2.86c0-.57.63-1.5,1.1-1.78.2-.12.28-.07.43.04l.05.04c.31.23.51.5.69.8.07.12.22.17.36.12h0c.17-.07.25-.27.15-.43-.11-.18-.26-.4-.35-.49-.09-.1-.18-.2-.28-.32,0,0,0,0-.01-.01-.02-.02-.05-.05-.04-.11v-.03s.04,0,.04,0c1.1-.09,1.94-.1,2.78.59,0,0,.11.11.22.22.11.11.29.12.42.02,0,0,0,0,0,0,.14-.12.15-.33.02-.45-.08-.08-.16-.15-.16-.16-1.08-1.03-2.84-1.05-4.11-.61h-.02s-.02,0-.02,0c-1.66-.55-3.76-.35-4.71,1.34-.17.3-.37.82-.4,1.14v2.89l-.07.07h-1.43c-.1,0-.25.11-.28.21v15.19s.16.19.2.2ZM16.95,32.97l1.12-1.32,1.12,1.32h-2.23ZM18.39,15.08c.06-.5.42-1.15.85-1.52.8-.7,1.7-.69,2.8-.61h.04s0,.04,0,.04c.01.06-.02.1-.04.12l-.08.09c-.34.35-.56.59-.75,1.09-.28.71-.24,1.47-.21,2.2.02.45.04.92-.01,1.37h0c0,.05,0,.1-.07.13h-.01s-2.51,0-2.51,0v-2.92ZM17.1,18.61h2.05l-1.09,1.34-1.04-1.22.08-.12ZM16.59,19.2l.09.08c.14.14.27.29.39.43.04.05.11.14.19.24.21.27.55.71.68.77.16.07.26.02.38-.1.19-.18.37-.42.54-.65.16-.21.32-.43.49-.6h.01s.06-.08.13-.07h.04v12.99h-.04s-.09.03-.12-.04c-.14-.16-.28-.34-.41-.51-.18-.22-.36-.45-.54-.66-.21-.23-.34-.33-.58-.17l-1.25,1.47v-13.19Z"/>
      </g>
      <path class="st1" d="M21.7,34.74h-9.87c-.17,0-.3-.14-.3-.3s.14-.3.3-.3h9.87c.17,0,.3.14.3.3s-.14.3-.3.3Z"/>
    </g>
  </g>
</svg>