<?xml version="1.0" encoding="UTF-8"?>
<svg id="_Шар_1" data-name="Шар_1" xmlns="http://www.w3.org/2000/svg" version="1.1" viewBox="0 0 48 48">
  <!-- Generator: Adobe Illustrator 30.0.0, SVG Export Plug-In . SVG Version: 2.1.1 Build 123)  -->
  <defs>
    <style>
      .st0 {
        fill: #e0edcc;
      }

      .st1 {
        fill: #575756;
      }

      .st2 {
        fill: #fff;
      }
    </style>
  </defs>
  <g>
    <circle class="st2" cx="24" cy="24" r="23.94"/>
    <path class="st1" d="M24,48C10.77,48,0,37.23,0,24S10.77,0,24,0s24,10.77,24,24-10.77,24-24,24ZM24,.12C10.83.12.12,10.83.12,24s10.71,23.88,23.88,23.88,23.88-10.71,23.88-23.88S37.17.12,24,.12Z"/>
  </g>
  <g>
    <circle class="st0" cx="24" cy="24" r="19.13"/>
    <g>
      <path class="st1" d="M37.78,33.9c-.02-.41,0-.85.01-1.28.02-.5.04-1.03,0-1.49-.04-.35-.44-.81-.81-.81h-1.32l.53-.87c.38-.84.48-1.74.29-2.61-.14-.66-.44-.8-1.04-.88h0s-.07-.07-.07-.07h0s0-6.25,0-6.25c-.04-.3-.38-.69-.67-.74h-3.05l-.07-.11h0c.41-.71.4-1.4-.04-2.24-.36-.69-.79-1.37-1.2-2.03-.07-.12-.15-.24-.22-.35-.28-.2-.59-.15-.81.11-.19.36-.42.73-.64,1.09-.25.41-.51.83-.72,1.25-.4.79-.4,1.48,0,2.16h0s-.07.13-.07.13h-3.05c-.14,0-.48.3-.55.44-.12.22-.17.83-.11,1.07.04.18.2.25.34.25,0,0,.01,0,.02,0,.16,0,.35-.11.39-.38,0-.04,0-.11,0-.18,0-.18-.02-.38.1-.43h.01s9.29-.03,9.29-.03c.1,0,.17.02.22.07.03.03.04.07.04.12v6.07s-.64.05-.64.05v-.02c-.42-.96-1.07-1.76-1.84-2.25-.55-.36-.72-.47-1.31-.13-.84.47-1.58,1.33-2.03,2.37v.02s-.55-.06-.55-.06v-.03c.04-.87.01-1.7-.63-2.35-.65-.65-1.45-.64-2.3-.62-.11,0-.21,0-.32,0h-.03s0-.72,0-.72c0-.01-.06-.14-.07-.16-.06-.09-.14-.15-.25-.17-.11-.02-.22,0-.31.07-.02.01-.12.13-.13.16v.76l-.15.07c-1.35.01-2.73,0-4.06,0-2.26-.01-4.59-.02-6.88.05-1.28.37-1.79,1.39-1.61,3.22.05.52.41,1.13.88,1.48l.03.02-.03.02c-.38.32-.64.66-.77,1.03-.18.5-.18,1.76,0,2.28.05.14.11.26.19.39.04.08.09.16.13.24l.02.04h-.92c-.3,0-.67.36-.77.65-.07.21-.08,1.4-.03,1.64.07.31.41.63.74.68h10.58c.14,0,.27-.09.32-.23.05-.13.04-.26-.05-.38-.03-.05-.21-.15-.24-.15h-10.54l-.07-.07v-1.26s.1-.12.12-.12h13.78l.07.07v1.38h-1.62s-.14.08-.16.1c-.11.1-.16.25-.11.4.05.15.16.24.31.26h13.69c.36-.09.62-.34.74-.72ZM31.09,18.04c-.08.32-.41.82-.75.87-.11.02-.34.02-.56.02s-.44,0-.55-.02c-.45-.05-.79-.69-.82-1.08-.02-.23.03-.45.15-.72.14-.32.35-.65.55-.96.22-.34.44-.7.59-1.06h0s0-.01,0-.01c.02-.01.03-.02.05-.01.05,0,.09.07.13.14,0,.01.01.02.02.03.3.44.89,1.42,1.1,1.9.14.32.17.6.09.91ZM35.02,26.66c.19.01.62.06.69.2.04.08.09.46.1.55.09,1.15-.42,2.26-1.31,2.9h0s-2.48,0-2.48,0c-.11-.03-.08-.21-.05-.36,0-.05.02-.09.02-.12,0-.09-.02-.22-.03-.34v-.09c-.02-.09-.05-.21-.08-.34-.04-.19-.09-.39-.08-.49,0-.07.07-.17.12-.26.01-.02.03-.05.04-.07.58-1.06,1.79-1.69,3.07-1.61ZM29.52,26.13c.38-.9,1.04-1.62,1.85-2.02h.01s.01,0,.01,0c.81.44,1.46,1.16,1.82,2.02h0s-.05.1-.05.1h0c-.68.28-1.28.79-1.75,1.47l-.02.03-.02-.03c-.48-.69-1.08-1.19-1.82-1.54h-.02s.01-.04.01-.04ZM29.8,27.19c.83.57,1.35,1.48,1.41,2.47.01.19.03.48-.1.64h0s-2.84.01-2.84.01h0c-1.11-.76-1.63-2.25-1.25-3.55h0s.01-.02.01-.02c.94-.29,1.95-.13,2.77.44ZM24.93,31.03v.62h-.03l-11.62-.02c-.49-.11-.97-.62-1.03-1.09-.05-.42-.07-1.48.22-1.9.46-.65,1.07-.63,1.72-.6.23,0,.47.02.7,0,.27-.03.38-.2.4-.36.01-.15-.07-.34-.28-.4-.21-.05-.54-.04-.87-.02-.23.01-.44.02-.61,0-.51-.04-.95-.34-1.17-.79-.16-.32-.17-1.32-.12-1.71.07-.56.69-1.11,1.25-1.12h12.7c.54.04,1.05.46,1.2.99.07.25.06.52.06.79,0,.15,0,.3,0,.44v.02s-.02,0-.02,0c-.11.03-.22.06-.33.08-.24.05-.49.09-.66.27-.13.15-.2.44-.25.66,0,.03-.01.06-.02.09,0,.02,0,.05,0,.08,0,.07,0,.16-.08.19h0s-9.27,0-9.27,0c-.23,0-.36.18-.38.34-.02.16.06.34.27.4l9.4.02v.02c.04.13.06.26.09.38.03.15.06.3.1.44.1.32.27.68.52,1.07.02.03.05.07.08.1.07.08.14.16.13.26v.03h-1.29c-.27,0-.81.43-.81.7ZM37.03,33.85h-11.33v-2.77h11.33v2.77Z"/>
      <path class="st1" d="M14.52,15.07c.03.54.26.89.49,1.22.19.28.37.54.39.88.04.51-.17.78-.38,1.07-.12.16-.24.32-.33.54-.26.64-.21,1.37.14,1.97.06.1.28.44.54.47.11.01.21-.04.31-.14.21-.24.07-.44-.08-.66-.06-.1-.13-.19-.17-.3-.25-.68,0-1.04.28-1.41.14-.19.28-.38.37-.63.19-.52.19-1.07,0-1.58-.09-.24-.23-.43-.36-.61-.27-.37-.53-.72-.29-1.39.04-.11.11-.21.18-.31.14-.2.27-.38.11-.62-.07-.11-.21-.18-.35-.18-.03,0-.06,0-.1.01-.49.11-.77,1.25-.75,1.68Z"/>
      <path class="st1" d="M20.45,16.56c.45.73.14,1.23-.19,1.75-.21.34-.43.68-.47,1.12-.05.54.17,1.35.58,1.69.15.13.35.14.51.02.12-.09.23-.27.13-.51-.03-.08-.09-.15-.14-.23-.08-.11-.17-.23-.22-.41-.16-.62.08-.96.34-1.32.15-.21.3-.42.39-.7.13-.42.14-.83.03-1.26-.08-.31-.25-.55-.41-.78-.27-.37-.52-.73-.34-1.37.04-.13.12-.25.2-.37.16-.23.29-.43.09-.67-.1-.12-.25-.18-.42-.14-.38.08-.72,1.01-.75,1.38-.06.72.14,1,.43,1.42.07.11.16.23.24.37Z"/>
      <path class="st1" d="M17.78,16.51c.5.78.18,1.27-.16,1.78-.21.32-.42.65-.46,1.06-.05.54.04.97.29,1.39.16.28.32.43.48.47.1.02.21,0,.31-.08.31-.22.15-.47-.03-.74-.08-.12-.15-.22-.18-.33-.19-.66.05-1,.31-1.35.13-.18.26-.36.35-.6.25-.65.19-1.38-.17-1.96-.05-.08-.11-.16-.18-.23-.07-.08-.14-.16-.19-.25-.24-.41-.24-.94-.02-1.37.03-.05.08-.12.13-.18.05-.06.1-.12.11-.16.05-.17.01-.34-.1-.46-.08-.08-.18-.12-.29-.12-.04,0-.08,0-.11.02-.34.09-.69.96-.72,1.27-.07.81.1,1.07.45,1.59.05.08.1.16.16.25Z"/>
    </g>
  </g>
</svg>