<?xml version="1.0" encoding="UTF-8"?>
<svg id="_Шар_1" data-name="Шар_1" xmlns="http://www.w3.org/2000/svg" version="1.1" viewBox="0 0 48 48">
  <!-- Generator: Adobe Illustrator 30.0.0, SVG Export Plug-In . SVG Version: 2.1.1 Build 123)  -->
  <defs>
    <style>
      .st0 {
        fill: #fad3bd;
      }

      .st1 {
        fill: #575756;
      }

      .st2 {
        fill: #fff;
      }
    </style>
  </defs>
  <g>
    <circle class="st2" cx="24" cy="24" r="23.94"/>
    <path class="st1" d="M24,48C10.77,48,0,37.23,0,24S10.77,0,24,0s24,10.77,24,24-10.77,24-24,24ZM24,.12C10.83.12.12,10.83.12,24s10.71,23.88,23.88,23.88,23.88-10.71,23.88-23.88S37.17.12,24,.12Z"/>
  </g>
  <g>
    <circle class="st0" cx="24" cy="24" r="19.13"/>
    <g>
      <path class="st1" d="M35.53,14.34c.2,0,.37-.17.37-.37s-.17-.37-.37-.37h-6.14c-.12,0-.29.14-.32.26v5.56s.01.11.07.17c.07.08.14.13.16.13h6.3c.19,0,.35-.16.35-.35s-.16-.35-.35-.35h-5.77l-.07-.07v-4.62h5.77Z"/>
      <path class="st1" d="M27.43,22.45c0-.29-.23-.35-.47-.37-.92.05-1.9.02-2.84,0-1.03-.03-2.09-.07-3.09,0-.29.02-.47.1-.5.43.04.85.02,1.74,0,2.6-.02.93-.05,1.9,0,2.82.05.83.36,1.61.87,2.2.54.61,1.32,1.02,2.2,1.16h.03v.03l-.02,2.52h-.01s-2.15,1.46-2.15,1.46c-.09.07-.14.21-.12.35.02.13.1.22.21.26h4.89c.12-.04.2-.12.23-.24.03-.12,0-.26-.1-.36l-2.19-1.44v-2.59s.02,0,.02,0c.83-.11,1.54-.47,2.1-1.06.55-.59.88-1.32.94-2.05.07-.97.04-1.99,0-2.98-.03-.91-.05-1.84,0-2.73ZM21.27,22.82h5.45v2.53l-.04-.02c-.11-.05-.21-.13-.3-.21-.09-.08-.18-.16-.3-.2-.47-.2-1.02-.13-1.42.2-.05.04-.1.1-.15.15-.12.13-.24.26-.42.28-.04,0-.07,0-.1,0-.25,0-.39-.14-.53-.29-.06-.07-.13-.14-.21-.2-.46-.34-1.07-.35-1.53-.04l-.44.33v-2.55ZM24.95,35.09l.08.14h-1.98s-.07-.06-.07-.07c-.01-.02,0-.04,0-.04h.01c.17-.08.33-.19.48-.3.16-.12.33-.24.52-.31h.01s.01,0,.01,0l.93.59ZM26.11,29.58c-.53.64-1.29,1-2.12,1-.06,0-.12,0-.18,0-.88-.05-1.65-.51-2.12-1.25-.46-.73-.44-1.48-.42-2.28,0-.28.02-.57,0-.85v-.02s.02,0,.02,0c.11-.05.23-.1.35-.16.09-.06.18-.13.26-.2.22-.19.44-.36.8-.23.11.04.21.15.3.25.06.06.11.12.16.16.54.43,1.18.41,1.75-.06.04-.03.08-.08.13-.13.07-.08.14-.16.22-.2.35-.18.62.03.88.24.17.14.35.28.56.31h.03s0,.03,0,.03c0,.25,0,.5,0,.74.02.96.05,1.87-.62,2.67Z"/>
      <path class="st1" d="M23,27.08c-.15-.15-.4-.15-.55,0s-.15.4,0,.55l.23.23c.15.15.4.15.55,0s.15-.4,0-.56l-.23-.23Z"/>
      <path class="st1" d="M25,28.24h.3c.22,0,.39.18.39.39h0c0,.23-.18.4-.39.4h-.3c-.22,0-.39-.18-.39-.39h0c0-.23.18-.4.39-.4Z" transform="translate(-12.88 26.18) rotate(-45.01)"/>
      <path class="st1" d="M32.87,33.84v-.02s-.01-2.55-.01-2.55h.03c1.61-.17,2.93-1.53,3.07-3.18l-.02-5.75c-.07-.21-.27-.25-.48-.26-.99-.08-2.06-.04-3.09,0-.95.03-1.92.06-2.85,0-.28.03-.44.1-.46.37.05.89.02,1.82,0,2.73-.03.98-.06,1.99,0,2.95.08,1.23.92,2.39,2.08,2.89.23.1.45.15.69.21.1.02.19.05.29.08h.02s0,2.53,0,2.53h-.01s-2.19,1.48-2.19,1.48c-.09.09-.13.2-.1.32.03.12.12.23.26.28l4.76.02c.16-.02.28-.13.32-.27.04-.13-.01-.27-.13-.36l-2.16-1.46ZM29.76,22.82h5.48v2.46l-.1.05-.02-.02c-.57-.58-1.36-.66-1.92-.2-.06.05-.11.11-.17.16-.12.13-.24.26-.46.29-.03,0-.06,0-.08,0-.26,0-.41-.15-.56-.31-.08-.09-.17-.18-.29-.25-.4-.24-.95-.25-1.36-.02-.07.04-.14.1-.2.16-.09.08-.18.16-.29.2h-.04s0-2.51,0-2.51ZM30.29,29.47c-.58-.79-.56-1.65-.54-2.56,0-.22.01-.46,0-.69h0s.08-.08.29-.19c.07-.04.14-.07.17-.09.08-.05.15-.12.22-.18.19-.17.37-.33.71-.21.13.04.2.12.26.19.03.03.06.07.09.09.48.4.9.59,1.53.32.16-.07.28-.19.4-.31.19-.18.36-.36.67-.33.19.02.33.14.47.26.06.06.13.11.19.15.1.06.2.12.31.16.04.02.09.04.13.06h.02v.03c0,.19,0,.39.01.59.02.81.05,1.65-.35,2.38-.44.81-1.26,1.34-2.2,1.4-.07,0-.13,0-.2,0-.87,0-1.69-.41-2.21-1.11ZM33.51,35.16s-.04.07-.07.07h-1.95v-.02c-.02-.06,0-.09.03-.1,0,0,0,0,.01,0,.07-.05.87-.6.95-.6,0,0,0,0,0,0,.1,0,.27.12.54.32.18.13.37.26.46.29h.01s0,.01,0,.01c0,0,.01.02,0,.05Z"/>
      <path class="st1" d="M33.81,29.02l.23-.23c.15-.15.15-.4,0-.55-.15-.15-.4-.15-.55,0l-.23.23c-.15.15-.15.4,0,.56.15.15.4.15.55,0Z"/>
      <path class="st1" d="M31.49,27.08c-.15-.15-.39-.15-.55,0-.15.15-.15.39,0,.55l.23.23c.15.15.39.15.55,0,.15-.15.15-.39,0-.55l-.23-.23Z"/>
      <path class="st1" d="M16.27,31.21c.11-.02.22-.05.33-.08,1.27-.42,2.23-1.65,2.35-3l-.03-5.81c-.03-.12-.24-.23-.34-.23h-1.16v-.03c0-.59.02-1.2-.11-1.81-.03-.15-.07-.31-.12-.46-.1-.37-.21-.76-.16-1.18v-.03h5.98v.02c.71,1.49,2.26,2.53,3.95,2.66h8.63c.19,0,.35-.16.35-.35s-.16-.35-.35-.35h-7.37v-7.78h7.37c.19,0,.35-.16.35-.35s-.16-.35-.35-.35h-8.53c-1.56.11-2.91.89-3.79,2.2-.02.03-.05.09-.09.15-.11.2-.18.33-.24.35h0s-6.34,0-6.34,0c-.04,0-.08.01-.13.05-.1.08-.18.2-.18.22v.49h-1.07c-.65,0-1.61.95-1.61,1.58v4.96h-1.16c-.13,0-.34.1-.38.24l-.02,5.77c.14,1.64,1.43,2.98,3.07,3.19h.03v2.53s-.02,0-.02,0l-2,1.35c-.21.11-.33.29-.3.47.03.15.16.26.36.29h4.65c.15-.03.28-.13.32-.26.04-.12,0-.25-.1-.36l-2.2-1.47v-2.53s.02,0,.02,0c.12-.05.26-.07.38-.1ZM21.66,15.49h1.67c.12,0,.3-.36.41-.57.04-.08.07-.15.1-.19.76-1.22,2.09-1.95,3.57-1.95.02,0,.03,0,.05,0h.03v7.78h-.03s-.1,0-.15,0c-1.37,0-2.67-.7-3.42-1.85-.04-.06-.09-.15-.13-.25-.14-.27-.31-.62-.53-.62h-1.58v-2.36ZM18.56,15.49h2.39v2.36h-2.39v-2.36ZM17.03,15.49h.83v2.36h-.83v-2.36ZM17.41,22.82h.83v2.53l-.04-.02c-.11-.05-.2-.13-.3-.2-.14-.12-.28-.22-.46-.24h-.03v-2.07ZM14.32,17.22c0-.41.66-.97,1.03-.97h.94v.03c.02.41.01.85,0,1.27-.02.71-.04,1.45.1,2.12.03.12.07.25.12.4.08.25.16.5.16.7v1.32h-2.36v-4.86ZM14.32,22.82h2.36v2.07h-.03c-.21.02-.35.15-.49.28-.05.05-.11.1-.16.14,0,0-.01.01-.02.02-.02.02-.05.05-.1.03h-.02v-1.37c0-.19-.16-.35-.35-.35s-.35.16-.35.35v1.38l-.04-.02c-.1-.04-.18-.12-.25-.2-.06-.06-.13-.13-.2-.17-.08-.04-.21-.1-.3-.11h-.03v-2.07ZM12.76,22.82h.86v1.97l-.05.09h-.01c-.22.06-.39.21-.57.35-.04.03-.08.06-.12.09h-.02s-.1-.04-.1-.04v-2.46ZM16.47,35.1s0,0,.01,0c.04.01.05.04.04.1v.02s-1.97,0-1.97,0c-.02,0-.06-.05-.07-.07,0-.02,0-.03,0-.04h.01c.17-.08.33-.19.48-.3.16-.12.33-.24.52-.31h0s0,0,0,0c.08,0,.88.54.95.6ZM15.51,30.58c-.07,0-.14,0-.21,0-.86-.06-1.62-.51-2.08-1.22-.51-.78-.48-1.68-.45-2.56,0-.2.01-.4.01-.6v-.02h.02c.14-.07.3-.14.44-.23.08-.05.15-.11.21-.17.17-.15.33-.29.64-.24.16.02.31.16.46.31.16.15.33.31.53.37.69.22.98-.02,1.47-.43l.04-.04s.01-.01.02-.03c.01-.02.02-.04.05-.05.41-.3.66-.1.92.11.08.06.16.13.25.19.02.02.08.04.14.07.2.1.27.14.28.17h0c0,.22,0,.44,0,.64.02,1.01.05,1.97-.7,2.81-.52.59-1.26.92-2.04.92Z"/>
      <path class="st1" d="M14.33,26.92h.02c.21,0,.39.17.39.39v.32c0,.21-.17.39-.39.39h-.02c-.21,0-.39-.17-.39-.39v-.32c0-.21.17-.39.39-.39Z" transform="translate(-15.21 18.16) rotate(-44.95)"/>
      <path class="st1" d="M16.12,28.24l-.24.24c-.15.15-.15.39,0,.55.15.15.39.15.55,0l.24-.24c.15-.15.15-.39,0-.55s-.39-.15-.55,0Z"/>
      <path class="st1" d="M15.11,17.58c-.17,0-.3.13-.3.3v3.34c0,.17.13.3.3.3s.3-.13.3-.3v-3.34c0-.17-.13-.3-.3-.3Z"/>
    </g>
  </g>
</svg>