<?xml version="1.0" encoding="UTF-8"?>
<svg id="_Шар_1" data-name="Шар_1" xmlns="http://www.w3.org/2000/svg" version="1.1" viewBox="0 0 48 48">
  <!-- Generator: Adobe Illustrator 30.0.0, SVG Export Plug-In . SVG Version: 2.1.1 Build 123)  -->
  <defs>
    <style>
      .st0 {
        fill: #e0edcc;
      }

      .st1 {
        fill: #575756;
      }

      .st2 {
        fill: #fff;
      }
    </style>
  </defs>
  <g>
    <circle class="st2" cx="24" cy="24" r="23.94"/>
    <path class="st1" d="M24,48C10.77,48,0,37.23,0,24S10.77,0,24,0s24,10.77,24,24-10.77,24-24,24ZM24,.12C10.83.12.12,10.83.12,24s10.71,23.88,23.88,23.88,23.88-10.71,23.88-23.88S37.17.12,24,.12Z"/>
  </g>
  <g>
    <circle class="st0" cx="24" cy="24" r="19.13"/>
    <g>
      <g>
        <path class="st1" d="M17.98,18.55h2.28c.27,0,.45.69-.01.79h-3.13c-.56-.34-.15-.61,0-.98.56-1.52-1.49-2.63-2.5-1.34-.27.35-.21.53-.33.88-.11.34-.45.21-.7.25-.87.13-1.09,1.29-.28,1.68.27.13,1.06.1.75.69-.21.4-.88.18-1.19,0-1.46-.8-.97-3.07.69-3.19.36-1.86,2.75-2.47,3.97-1.02.56.67.57,1.4.45,2.23Z"/>
        <g>
          <path class="st1" d="M24.27,28.75c.04-.06.18-.11.26-.12,1.03.08,2.2-.1,3.22,0,.27.03.35.16.38.43.12,1.29-.1,2.76,0,4.07,0,.29-.15.4-.43.43-.99.09-2.11-.07-3.11,0l-.33-.17.02-4.63ZM27.32,29.43h-2.31v1.25h2.31v-1.25ZM27.32,31.49h-2.31v1.25h2.31v-1.25Z"/>
          <path class="st1" d="M21.48,31.4c.7-.21.78.92,0,.73-.35-.08-.3-.64,0-.73Z"/>
          <g>
            <path class="st1" d="M39.16,29.13v5.14l.08.08h5.27c.22,0,.5.74-.2.81H11.98c-.7-.06-.42-.81-.2-.81h4.11l.08-.08v-6.2c-.22.04-.37.25-.58.35-1.24.54-2.28-.95-1.4-1.95l8.14-6.36c.72-.57,1.77-.56,2.49,0l8.14,6.36c.93,1.04-.18,2.56-1.44,1.95-.18-.09-.33-.32-.54-.34v6.2l.08.08h2.58v-9.38c-.98-.05-2.11-.15-2.89-.8-1.47-1.23-.87-3.62-.51-5.23.2-.88.43-1.76.68-2.63.02-.04-.05-.12-.07-.12h-4.77c-.29,0-.43-.72.1-.8h4.98c.29-.86.54-1.74.95-2.54,1.26-2.49,2.74-2.33,3.92.12.66,1.38,1.05,2.96,1.44,4.43.07.09.07.01.12-.03.25-.27.39-.56.74-.76,1.63-.92,2.67,1.94,3.05,3.05.35,1.02.64,2.13.89,3.18.31,1.32.82,3.09.43,4.41-.42,1.4-2.03,1.9-3.35,1.9ZM33.44,24.17v-2.28c-.2-.33-1.06-.9-1.06-1.25s.38-.5.67-.33c.11.07.22.32.39.35v-3.14c0-.1.26-.32.38-.33s.42.16.42.28v1.48c.16.04.19-.12.33-.15.27-.06.53.09.53.37,0,.4-.68.75-.86,1.1v3.81c0,.05.12.08.17.08.1,0,.75-.08.77-.11.35-1.87.92-3.69,1.55-5.48-.55-1.87-.93-4.28-1.98-5.94-.28-.44-.71-1.01-1.26-.64-1.02.68-1.97,4.35-2.29,5.59-.33,1.3-1.02,3.71-.7,4.97.35,1.4,1.71,1.53,2.94,1.61ZM39.16,28.28h.83c.24,0,1.09-.43,1.3-.6.79-.65.54-2.17.36-3.07-.35-1.76-1.18-5.25-2.11-6.72s-1.52-.18-1.95.78c-.73,1.62-1.33,4.04-1.67,5.8-.18.9-.49,2.46.25,3.16.21.19,1.1.65,1.35.65h.83v-3.34c-.18-.25-.86-.71-.86-1,0-.17.18-.39.34-.42.23-.04.32.14.52.19v-1.43c0-.25.36-.38.59-.29.04.02.21.17.21.19v3.24c.32-.14.56-.71.96-.33.49.48-.71,1.19-.96,1.56v1.63ZM23.19,20.52c-.33.04-.48.19-.74.37-2.69,1.9-5.21,4.23-7.89,6.16-.32.4.04.87.52.62l7.8-6.05c.53-.22.86-.07,1.31.22l7.53,5.87c.4.16.72-.29.48-.63-.07-.1-.83-.66-1-.8-2.34-1.86-4.74-3.65-7.08-5.51-.28-.22-.58-.29-.93-.25ZM23.15,28.86v5.42l.08.08h6.67l.08-.08v-6.87l-6.46-5.03c-.3-.09-.53.14-.76.32-2.02,1.53-3.97,3.16-5.98,4.71v6.87l.08.08h1.66l.08-.08v-5.42c0-.14.26-.22.37-.23,1.22-.11,2.63.09,3.87,0,.08-.03.31.18.32.23ZM34.24,25.04v9.23l.08.08h3.96l.08-.08v-5.12l-.08-.07c-.76.09-1.6-.15-2.24-.57-1.26-.81-1.25-2.17-1.04-3.52-.06-.19-.51,0-.66-.02l-.08.07ZM22.35,29.43h-2.96v4.92h2.96v-4.92Z"/>
            <path class="st1" d="M24.4,10.48c.61-.07,1.23.09,1.71.47.14.11.51.58.56.6.13.06.44.01.62.04.97.14,1.7,1.14,1.56,2.1.11.15,1.32-.06,1.6.11.2.12.19.6-.03.71-.15.07-1.8.06-2.07.04-.74-.07-.3-.66-.29-1.04.01-.59-.48-1.11-1.07-1.12-.26,0-.48.18-.74.04-.14-.08-.23-.38-.34-.52-1.11-1.47-3.38-.08-2.54,1.58.16.31.5.45.33.83-.24.55-.75.04-.95-.26-.91-1.42-.06-3.36,1.64-3.56Z"/>
          </g>
        </g>
      </g>
      <path class="st1" d="M23.15,36.12h-8.4c-1.26,0-7.06-.11-7.12-.11h0c-.22,0-.39.17-.4.39,0,.22.17.4.39.4.06,0,5.86.11,7.13.11h8.4c.22,0,.4-.18.4-.4s-.18-.4-.4-.4Z"/>
    </g>
  </g>
</svg>