<?xml version="1.0" encoding="UTF-8"?>
<svg id="_Шар_1" data-name="Шар_1" xmlns="http://www.w3.org/2000/svg" version="1.1" viewBox="0 0 48 48">
  <!-- Generator: Adobe Illustrator 30.0.0, SVG Export Plug-In . SVG Version: 2.1.1 Build 123)  -->
  <defs>
    <style>
      .st0 {
        fill: #c1e8f2;
      }

      .st1 {
        fill: #575756;
      }

      .st2 {
        fill: #fff;
      }
    </style>
  </defs>
  <g>
    <circle class="st2" cx="24" cy="24" r="23.94"/>
    <path class="st1" d="M24,48C10.77,48,0,37.23,0,24S10.77,0,24,0s24,10.77,24,24-10.77,24-24,24ZM24,.12C10.83.12.12,10.83.12,24s10.71,23.88,23.88,23.88,23.88-10.71,23.88-23.88S37.17.12,24,.12Z"/>
  </g>
  <g>
    <circle class="st0" cx="24" cy="24" r="19.13"/>
    <g>
      <path class="st1" d="M29.13,24.53c.18-.03.34.05.42.22.09.2,0,.35,0,.55-.13,1.9-.32,3.8-.49,5.7-.04.5-.05,1.04-.11,1.54-.04.29-.1.57-.47.53s-.33-.47-.31-.75c.05-.87.17-1.74.24-2.6l.41-4.88c.03-.15.16-.28.32-.31Z"/>
      <path class="st1" d="M30.58,18.29h-4.39c-.26,0-.44.25-.37.5,0,0,0,.01,0,.02.05.16.2.27.37.27h4.36c.22,0,.39.11.47.32l-.24,2.8-4.87.02c-.15,0-.28.08-.34.22,0,0,0,0,0,0-.12.26.06.55.35.55h4.82s-.65,7.39-.65,7.39c-.06.71-.1,1.43-.16,2.14-.09.97-.03,2.04-1.29,2.13-1.85.13-3.84-.1-5.7,0-.57-.04-1.01-.38-1.15-.94l-.75-7.88c-.02-.19-.18-.34-.37-.35,0,0-.02,0-.03,0-.23-.01-.42.19-.39.42l.02.19c.23,2.44.41,4.95.71,7.38.15,1.22.8,1.89,2.05,1.97,1.83-.08,3.74.1,5.56,0,1.28-.07,1.91-.79,2.05-2.02.16-1.44.23-2.9.35-4.34.27-3.05.57-6.11.79-9.17,0-.11.05-.27.05-.38,0-.7-.55-1.21-1.24-1.23Z"/>
      <g>
        <path class="st1" d="M21.07,12.67l3.69,5.56c1.73,3.38-1.39,7.18-5.18,6.25-2.78-.68-4.22-3.75-2.93-6.26,1.13-1.83,2.16-3.08,3.29-4.91.26-.42.51-1.07,1.12-.65ZM20.69,13.54l-3.3,4.99c-1.44,2.93,1.31,6.16,4.45,5.19,2.23-.69,3.19-3.17,2.17-5.25-.73-1.49-1.82-2.5-2.68-3.95-.16-.27-.36-.66-.54-.9-.03-.04-.04-.09-.1-.07Z"/>
        <path class="st1" d="M20.45,21.88c.24.25.06.62-.27.66-.69.07-1.51-.54-1.78-1.16-.15-.35-.36-1.22.28-1.15.35.04.3.4.35.64.11.49.53.79,1,.89.15.03.28-.04.42.11Z"/>
      </g>
    </g>
  </g>
</svg>